<?xml version="1.0" encoding="UTF-8"?>
<svg id="Layer_1" data-name="Layer 1" xmlns="http://www.w3.org/2000/svg" viewBox="0 0 253.77 450.2">
  <g>
    <path d="M175.96,36.42s-.02-.07-.02-.1c.02-.04.02-.09,0-.12.02-.02.02-.05,0-.07.01-.02.02-.04,0-.05-.12-2.75-2.47-5.11-5.19-5.37-3.64-.07-7.3,0-10.95-.03-2.86.16-5.24,2.41-5.51,5.27-.03.07-.04.14-.03.2-.02.02-.02.04,0,.05-.02.17-.03.36,0,.52,0,.09.04.18.03.27.03.17.03.34.06.51.28,1.58,1.19,3.01,2.54,3.88,0,.03-.02.04-.04.06-.16.14-.37.26-.55.4-1.13.97-1.88,2.41-2.01,3.9-.03.09-.04.17-.03.25-.02.15-.02.32,0,.47-.02.02-.02.06,0,.07,0,.08.05.16.03.25-.03.15-.01.35.02.51.28,1.6,1.21,2.97,2.5,3.87-1.14.76-1.96,1.91-2.35,3.22-.11.37-.21.79-.17,1.17-.03.09-.04.19-.03.27-.02.13-.02.27,0,.4,0,.1.04.2.03.3.05.32.07.61.15.94.62,2.47,2.83,4.26,5.37,4.41.03.02.09.02.12,0,.12.02.25.02.37,0,.03.02.07.02.1,0,3.03,0,5.62-2.65,5.72-5.66v-5.51c3.01,2.56,7.68,1.63,9.36-1.99.26-.57.48-1.18.44-1.81.01-.02.02-.04,0-.05.01-.02.02-.04,0-.05,0-.03,0-.06.02-.08v-.85s-.01-.04-.02-.05c.01-.02.02-.06,0-.07.02-.02.02-.06,0-.08-.08-1.64-1.22-3.43-2.6-4.27.39-.32.8-.62,1.14-1,.81-.89,1.4-2.19,1.46-3.4.01-.02.02-.04,0-.05.02-.02.02-.03,0-.05.02-.02.02-.03,0-.05,0-.04-.02-.1.02-.12v-.32ZM156.43,37.88c-.88-2.44.73-4.99,3.28-5.28,1.48-.06,2.97-.01,4.46-.03v7.87h-4.26c-1.56-.09-2.95-1.1-3.48-2.57ZM158,59.35c-3.23-2.09-1.86-7.04,2.01-7.23h4.16s0,4.11,0,4.11c-.2,3-3.62,4.78-6.17,3.12ZM164.19,50.18s-.06.04-.09.04c-1.37-.06-2.79.07-4.15,0-3.12-.17-4.87-3.69-3.01-6.26,1.71-2.36,4.66-1.43,7.16-1.62.03,0,.09.02.09.04v7.8ZM173.45,48.39c-1.65,2.62-5.73,2.37-7.01-.46-1.18-2.58.62-5.45,3.42-5.58,3.21-.15,5.32,3.28,3.59,6.04ZM170.33,40.45h-4.26s0-7.83,0-7.83c0-.02.06-.04.09-.04,1.34.05,2.72-.06,4.05,0,1.64.08,3.08,1.05,3.63,2.62.88,2.51-.88,5.09-3.51,5.25Z"/>
    <g>
      <path d="M154.24.59h1.6c1.94,0,3,1.15,3,3.21s-1.06,3.27-2.96,3.27h-1.64V.59ZM155.78,6.39c1.47,0,2.2-.95,2.2-2.59s-.73-2.53-2.2-2.53h-.71v5.11h.71Z" style="fill: #231f20;"/>
      <path d="M159.98,4.66c0-1.56,1.17-2.51,2.45-2.51,1.38,0,2.19.9,2.19,2.25,0,.19-.02.37-.04.49h-4.06v-.63h3.57l-.21.23c0-1.13-.56-1.7-1.44-1.7s-1.66.67-1.66,1.86.81,1.88,1.88,1.88c.57,0,1.03-.18,1.46-.45l.3.53c-.47.32-1.09.57-1.86.57-1.44,0-2.59-.93-2.59-2.53Z" style="fill: #231f20;"/>
      <path d="M165.94,6.43l.37-.54c.55.39,1.2.65,2.08.65.81,0,1.2-.34,1.2-.74,0-.37-.19-.62-1.49-.89-1.25-.26-1.88-.68-1.88-1.4,0-.77.68-1.36,1.99-1.36.73,0,1.46.29,1.93.61l-.39.52c-.44-.31-1-.5-1.61-.5-.81,0-1.11.33-1.11.69,0,.41.41.59,1.4.8,1.59.35,1.97.74,1.97,1.48,0,.78-.76,1.43-2.13,1.43-.94,0-1.78-.35-2.36-.75Z" style="fill: #231f20;"/>
      <path d="M174.27,2.93h-2.22v-.66h3.04v4.8h-.82V2.93ZM173.94.63c0-.38.28-.63.65-.63s.65.26.65.63-.28.63-.65.63-.65-.25-.65-.63Z" style="fill: #231f20;"/>
      <path d="M177.79,7.94c0-.38.28-.77.79-1.07v-.04c-.26-.14-.49-.38-.49-.79,0-.31.21-.65.57-.9v-.04c-.33-.25-.59-.67-.59-1.24,0-1.05.87-1.72,1.89-1.72.28,0,.5.04.71.12h1.98v.66h-1.24c.22.23.41.58.41.97,0,1.03-.82,1.65-1.86,1.65-.25,0-.54-.06-.81-.18-.24.15-.37.33-.37.55,0,.38.37.55,1,.55h1.08c1.23,0,1.83.32,1.83,1.12,0,.9-1.04,1.68-2.66,1.68-1.4,0-2.21-.48-2.21-1.33ZM181.87,7.73c0-.45-.37-.58-1.1-.58h-.94c-.28,0-.52-.02-.73-.08-.45.25-.61.52-.61.8,0,.5.54.82,1.57.82,1.12,0,1.81-.46,1.81-.96ZM181.06,3.87c0-.67-.49-1.12-1.11-1.12s-1.11.45-1.11,1.12.5,1.14,1.11,1.14,1.11-.44,1.11-1.14Z" style="fill: #231f20;"/>
      <path d="M183.93,2.27h.67l.07.81h.04c.5-.52,1.06-.93,1.81-.93,1.13,0,1.66.67,1.66,1.93v2.98h-.82v-2.87c0-.91-.32-1.33-1.1-1.33-.57,0-.96.29-1.51.86v3.35h-.82V2.27Z" style="fill: #231f20;"/>
      <path d="M195.27,5.39c0-1.87,2.79-2.23,2.79-3.62,0-.38-.16-.71-.59-.71s-.72.4-.72.94c0,1.21,1.29,2.82,2.5,3.74.46.39.91.64,1.3.77l-.23.68c-.48-.15-1.01-.44-1.57-.9-1.38-1.11-2.71-2.95-2.71-4.27,0-.87.57-1.54,1.42-1.54s1.26.52,1.26,1.28c0,1.61-2.66,2.13-2.66,3.58,0,.72.55,1.19,1.24,1.19.5,0,.98-.32,1.36-.76.49-.57.84-1.31,1.06-2.2h.76c-.26.97-.66,1.86-1.24,2.6-.52.6-1.17,1.02-2.03,1.02-1.14,0-1.93-.75-1.93-1.8Z" style="fill: #231f20;"/>
      <path d="M207.71.59h1.95c1.43,0,2.4.48,2.4,1.9s-.98,2-2.4,2h-1.13v2.57h-.83V.59ZM209.57,3.83c1.12,0,1.67-.41,1.67-1.33s-.55-1.23-1.67-1.23h-1.03v2.57h1.03Z" style="fill: #231f20;"/>
      <path d="M215.06,5.46V.7h-1.7V.04h2.52v5.48c0,.69.38.99.95.99.28,0,.57-.07.9-.22l.21.61c-.44.19-.76.29-1.28.29-1.03,0-1.59-.59-1.59-1.73Z" style="fill: #231f20;"/>
      <path d="M219.35,5.82c0-1.08,1.01-1.6,3.48-1.8-.03-.65-.35-1.2-1.27-1.2-.62,0-1.23.3-1.68.57l-.33-.55c.49-.32,1.3-.69,2.14-.69,1.31,0,1.95.78,1.95,1.97v2.94h-.68l-.07-.65h-.03c-.52.41-1.21.77-1.89.77-.9,0-1.64-.5-1.64-1.36ZM222.83,5.81v-1.24c-2.05.16-2.67.56-2.67,1.19,0,.54.49.76,1.05.76s1.08-.26,1.63-.71Z" style="fill: #231f20;"/>
      <path d="M225.4,2.27h.67l.07.81h.04c.5-.52,1.06-.93,1.81-.93,1.13,0,1.66.67,1.66,1.93v2.98h-.82v-2.87c0-.91-.32-1.33-1.1-1.33-.57,0-.96.29-1.51.86v3.35h-.82V2.27Z" style="fill: #231f20;"/>
      <path d="M231.32,2.27h.67l.07.81h.04c.5-.52,1.06-.93,1.81-.93,1.13,0,1.66.67,1.66,1.93v2.98h-.82v-2.87c0-.91-.32-1.33-1.1-1.33-.57,0-.96.29-1.51.86v3.35h-.82V2.27Z" style="fill: #231f20;"/>
      <path d="M239.44,2.93h-2.22v-.66h3.04v4.8h-.82V2.93ZM239.11.63c0-.38.28-.63.65-.63s.65.26.65.63-.28.63-.65.63-.65-.25-.65-.63Z" style="fill: #231f20;"/>
      <path d="M243.17,2.27h.67l.07.81h.04c.5-.52,1.06-.93,1.81-.93,1.13,0,1.66.67,1.66,1.93v2.98h-.82v-2.87c0-.91-.32-1.33-1.1-1.33-.57,0-.96.29-1.51.86v3.35h-.82V2.27Z" style="fill: #231f20;"/>
      <path d="M248.89,7.94c0-.38.28-.77.79-1.07v-.04c-.26-.14-.49-.38-.49-.79,0-.31.21-.65.57-.9v-.04c-.33-.25-.59-.67-.59-1.24,0-1.05.87-1.72,1.89-1.72.28,0,.5.04.71.12h1.98v.66h-1.24c.22.23.41.58.41.97,0,1.03-.82,1.65-1.86,1.65-.25,0-.54-.06-.81-.18-.24.15-.37.33-.37.55,0,.38.37.55,1,.55h1.08c1.23,0,1.83.32,1.83,1.12,0,.9-1.04,1.68-2.66,1.68-1.4,0-2.21-.48-2.21-1.33ZM252.97,7.73c0-.45-.37-.58-1.1-.58h-.94c-.28,0-.52-.02-.73-.08-.45.25-.61.52-.61.8,0,.5.54.82,1.57.82,1.12,0,1.81-.46,1.81-.96ZM252.16,3.87c0-.67-.49-1.12-1.11-1.12s-1.11.45-1.11,1.12.5,1.14,1.11,1.14,1.11-.44,1.11-1.14Z" style="fill: #231f20;"/>
    </g>
    <g>
      <path d="M155.28,14.92h-1.04v-.41h2.47v.41h-1.04v3.36h-.4v-3.36Z" style="fill: #231f20;"/>
      <path d="M157.36,14.19h.4v1.11l-.02.66h.01c.23-.31.51-.55.86-.55.55,0,.8.39.8,1.12v1.73h-.4v-1.67c0-.53-.15-.77-.53-.77-.28,0-.46.17-.73.5v1.94h-.4v-4.08Z" style="fill: #231f20;"/>
      <path d="M161.29,15.87h-1.07v-.38h1.47v2.79h-.4v-2.4ZM161.13,14.54c0-.22.13-.37.32-.37s.31.15.31.37-.13.37-.31.37-.32-.14-.32-.37Z" style="fill: #231f20;"/>
      <path d="M162.99,17.91l.18-.32c.27.23.58.38,1.01.38.39,0,.58-.19.58-.43,0-.21-.09-.36-.72-.52-.61-.15-.91-.4-.91-.81,0-.45.33-.79.96-.79.35,0,.71.17.94.36l-.19.3c-.22-.18-.48-.29-.78-.29-.39,0-.53.19-.53.4,0,.24.2.34.68.46.77.2.95.43.95.86,0,.45-.37.83-1.03.83-.45,0-.86-.2-1.14-.44Z" style="fill: #231f20;"/>
      <path d="M168.72,17.91l.18-.32c.27.23.58.38,1.01.38.39,0,.58-.19.58-.43,0-.21-.09-.36-.72-.52-.61-.15-.91-.4-.91-.81,0-.45.33-.79.96-.79.35,0,.71.17.94.36l-.19.3c-.22-.18-.48-.29-.78-.29-.39,0-.53.19-.53.4,0,.24.2.34.68.46.77.2.95.43.95.86,0,.45-.37.83-1.03.83-.45,0-.86-.2-1.14-.44Z" style="fill: #231f20;"/>
      <path d="M172.23,17.19v-1.32h-.66v-.36l.67-.03.05-.9h.33v.9h1.14v.38h-1.14v1.33c0,.5.14.76.59.76.22,0,.39-.05.55-.13l.09.35c-.21.09-.43.17-.73.17-.68,0-.9-.46-.9-1.15Z" style="fill: #231f20;"/>
      <path d="M174.5,17.56c0-.63.49-.93,1.69-1.04-.01-.38-.17-.7-.62-.7-.3,0-.6.17-.81.33l-.16-.32c.24-.18.63-.4,1.04-.4.64,0,.95.45.95,1.15v1.71h-.33l-.03-.38h-.01c-.25.24-.59.45-.91.45-.43,0-.79-.29-.79-.79ZM176.18,17.55v-.72c-.99.09-1.29.33-1.29.69,0,.32.24.44.51.44s.52-.15.79-.41Z" style="fill: #231f20;"/>
      <path d="M177.33,18.79c0-.22.13-.45.38-.62v-.02c-.12-.08-.24-.22-.24-.46,0-.18.1-.38.28-.52v-.02c-.16-.14-.29-.39-.29-.72,0-.61.42-1,.91-1,.13,0,.24.02.34.07h.96v.38h-.6c.1.13.2.34.2.56,0,.6-.4.96-.9.96-.12,0-.26-.03-.39-.1-.11.09-.18.19-.18.32,0,.22.18.32.48.32h.52c.6,0,.88.18.88.65,0,.52-.5.98-1.29.98-.68,0-1.07-.28-1.07-.77ZM179.3,18.66c0-.26-.18-.34-.53-.34h-.45c-.13,0-.25-.01-.35-.05-.22.14-.3.3-.3.46,0,.29.26.48.76.48.54,0,.87-.27.87-.56ZM178.91,16.42c0-.39-.24-.65-.53-.65s-.54.26-.54.65.24.66.54.66.53-.26.53-.66Z" style="fill: #231f20;"/>
      <path d="M180.17,16.88c0-.91.56-1.46,1.18-1.46.67,0,1.06.52,1.06,1.31,0,.11,0,.21-.02.29h-1.96v-.37h1.73l-.1.13c0-.66-.27-.99-.7-.99s-.8.39-.8,1.08.39,1.09.91,1.09c.28,0,.5-.1.71-.26l.14.31c-.23.18-.53.33-.9.33-.7,0-1.25-.54-1.25-1.47Z" style="fill: #231f20;"/>
      <path d="M187.09,15.87h-1.07v-.38h1.47v2.79h-.4v-2.4ZM186.93,14.54c0-.22.13-.37.32-.37s.31.15.31.37-.13.37-.31.37-.32-.14-.32-.37Z" style="fill: #231f20;"/>
      <path d="M188.79,17.91l.18-.32c.27.23.58.38,1.01.38.39,0,.58-.19.58-.43,0-.21-.09-.36-.72-.52-.61-.15-.91-.4-.91-.81,0-.45.33-.79.96-.79.35,0,.71.17.94.36l-.19.3c-.22-.18-.48-.29-.78-.29-.39,0-.53.19-.53.4,0,.24.2.34.68.46.77.2.95.43.95.86,0,.45-.37.83-1.03.83-.45,0-.86-.2-1.14-.44Z" style="fill: #231f20;"/>
      <path d="M194.68,15.52l.67-.03h1.35v.38h-2.02v-.36ZM195.34,15.25c0-.68.3-1.13.94-1.13.23,0,.45.05.67.16l-.09.36c-.19-.1-.34-.13-.54-.13-.42,0-.58.28-.58.73v3.04h-.39v-3.02Z" style="fill: #231f20;"/>
      <path d="M197.34,16.89c0-.94.53-1.47,1.15-1.47s1.15.53,1.15,1.47-.54,1.46-1.15,1.46-1.15-.53-1.15-1.46ZM199.22,16.89c0-.64-.3-1.07-.74-1.07s-.74.43-.74,1.07.3,1.06.74,1.06.74-.42.74-1.06Z" style="fill: #231f20;"/>
      <path d="M200.61,15.49h.33l.04.66h0c.24-.45.61-.73,1.04-.73.17,0,.32.03.46.11l-.09.41c-.16-.06-.25-.09-.43-.09-.35,0-.68.21-.95.8v1.63h-.4v-2.79Z" style="fill: #231f20;"/>
      <path d="M205.89,15.49h.41l.53,1.58c.09.28.18.56.26.83h.02c.08-.27.16-.55.25-.83l.53-1.58h.38l-.96,2.79h-.44l-.98-2.79Z" style="fill: #231f20;"/>
      <path d="M210.02,15.87h-1.07v-.38h1.47v2.79h-.4v-2.4ZM209.86,14.54c0-.22.13-.37.32-.37s.31.15.31.37-.13.37-.31.37-.32-.14-.32-.37Z" style="fill: #231f20;"/>
      <path d="M211.72,17.91l.18-.32c.27.23.58.38,1.01.38.39,0,.58-.19.58-.43,0-.21-.09-.36-.72-.52-.61-.15-.91-.4-.91-.81,0-.45.33-.79.96-.79.35,0,.71.17.94.36l-.19.3c-.22-.18-.48-.29-.78-.29-.39,0-.53.19-.53.4,0,.24.2.34.68.46.77.2.95.43.95.86,0,.45-.37.83-1.03.83-.45,0-.86-.2-1.14-.44Z" style="fill: #231f20;"/>
      <path d="M214.62,17.22v-1.73h.4v1.67c0,.52.15.77.54.77.27,0,.46-.15.72-.51v-1.93h.4v2.79h-.33l-.03-.49h-.02c-.23.33-.51.56-.86.56-.55,0-.8-.39-.8-1.12Z" style="fill: #231f20;"/>
      <path d="M217.5,17.56c0-.63.49-.93,1.69-1.04-.01-.38-.17-.7-.62-.7-.3,0-.6.17-.81.33l-.16-.32c.24-.18.63-.4,1.04-.4.64,0,.95.45.95,1.15v1.71h-.33l-.03-.38h-.01c-.25.24-.59.45-.91.45-.43,0-.79-.29-.79-.79ZM219.19,17.55v-.72c-.99.09-1.29.33-1.29.69,0,.32.24.44.51.44s.52-.15.79-.41Z" style="fill: #231f20;"/>
      <path d="M221.16,17.34v-2.77h-.82v-.38h1.22v3.18c0,.4.18.57.46.57.13,0,.28-.04.43-.13l.1.36c-.22.11-.37.17-.62.17-.5,0-.77-.34-.77-1Z" style="fill: #231f20;"/>
      <path d="M154.37,23.77c0-.91.56-1.46,1.18-1.46.67,0,1.06.52,1.06,1.31,0,.11,0,.21-.02.29h-1.96v-.37h1.73l-.1.13c0-.66-.27-.99-.7-.99s-.8.39-.8,1.08.39,1.09.91,1.09c.28,0,.5-.1.71-.26l.14.31c-.23.18-.53.33-.9.33-.7,0-1.25-.54-1.25-1.47Z" style="fill: #231f20;"/>
      <path d="M158.1,23.72l-.81-1.34h.43l.37.61c.08.16.18.32.27.47h.02c.09-.15.18-.32.26-.48l.34-.6h.42l-.82,1.38.89,1.41h-.44l-.4-.64c-.1-.15-.21-.34-.31-.5h-.02c-.1.17-.19.33-.29.51l-.38.64h-.42l.88-1.45Z" style="fill: #231f20;"/>
      <path d="M160.23,22.38h.32l.03.36h.01c.22-.25.52-.42.8-.42.63,0,.96.56.96,1.42,0,.95-.5,1.5-1.06,1.5-.22,0-.48-.13-.69-.36h0l.02.53v.94h-.4v-3.96ZM161.95,23.73c0-.61-.19-1.02-.65-1.02-.21,0-.44.13-.68.41v1.39c.21.23.46.32.62.32.41,0,.72-.41.72-1.1Z" style="fill: #231f20;"/>
      <path d="M163.82,24.23v-2.77h-.82v-.38h1.22v3.18c0,.4.18.57.46.57.13,0,.28-.04.43-.13l.1.36c-.22.11-.37.17-.62.17-.5,0-.77-.34-.77-1Z" style="fill: #231f20;"/>
      <path d="M165.8,23.78c0-.94.53-1.47,1.15-1.47s1.15.53,1.15,1.47-.54,1.46-1.15,1.46-1.15-.53-1.15-1.46ZM167.69,23.78c0-.64-.3-1.07-.74-1.07s-.74.43-.74,1.07.3,1.06.74,1.06.74-.42.74-1.06Z" style="fill: #231f20;"/>
      <path d="M169.07,22.38h.33l.04.66h0c.24-.45.61-.73,1.04-.73.17,0,.32.03.46.11l-.09.41c-.16-.06-.25-.09-.43-.09-.35,0-.68.21-.95.8v1.63h-.4v-2.79Z" style="fill: #231f20;"/>
      <path d="M171.63,24.44c0-.63.49-.93,1.69-1.04-.01-.38-.17-.7-.62-.7-.3,0-.6.17-.81.33l-.16-.32c.24-.18.63-.4,1.04-.4.64,0,.95.45.95,1.15v1.71h-.33l-.03-.38h-.01c-.25.24-.59.45-.91.45-.43,0-.79-.29-.79-.79ZM173.32,24.44v-.72c-.99.09-1.29.33-1.29.69,0,.32.24.44.51.44s.52-.15.79-.41Z" style="fill: #231f20;"/>
      <path d="M175.1,24.08v-1.32h-.66v-.36l.67-.03.05-.9h.33v.9h1.14v.38h-1.14v1.33c0,.5.14.76.59.76.22,0,.39-.05.55-.13l.09.35c-.21.09-.43.17-.73.17-.68,0-.9-.46-.9-1.15Z" style="fill: #231f20;"/>
      <path d="M178.49,22.76h-1.07v-.38h1.47v2.79h-.4v-2.4ZM178.33,21.43c0-.22.13-.37.32-.37s.31.15.31.37-.13.37-.31.37-.32-.14-.32-.37Z" style="fill: #231f20;"/>
      <path d="M180.14,23.78c0-.94.53-1.47,1.15-1.47s1.15.53,1.15,1.47-.54,1.46-1.15,1.46-1.15-.53-1.15-1.46ZM182.02,23.78c0-.64-.3-1.07-.74-1.07s-.74.43-.74,1.07.3,1.06.74,1.06.74-.42.74-1.06Z" style="fill: #231f20;"/>
      <path d="M183.16,22.38h.32l.03.47h.02c.24-.3.51-.54.87-.54.55,0,.8.39.8,1.12v1.73h-.4v-1.67c0-.53-.15-.77-.53-.77-.28,0-.46.17-.73.5v1.94h-.4v-2.79Z" style="fill: #231f20;"/>
      <path d="M188.83,24.44c0-.63.49-.93,1.69-1.04-.01-.38-.17-.7-.62-.7-.3,0-.6.17-.81.33l-.16-.32c.24-.18.63-.4,1.04-.4.64,0,.95.45.95,1.15v1.71h-.33l-.03-.38h-.01c-.25.24-.59.45-.91.45-.43,0-.79-.29-.79-.79ZM190.52,24.44v-.72c-.99.09-1.29.33-1.29.69,0,.32.24.44.51.44s.52-.15.79-.41Z" style="fill: #231f20;"/>
      <path d="M191.76,22.38h.32l.03.47h.02c.24-.3.51-.54.87-.54.55,0,.8.39.8,1.12v1.73h-.4v-1.67c0-.53-.15-.77-.53-.77-.28,0-.46.17-.73.5v1.94h-.4v-2.79Z" style="fill: #231f20;"/>
      <path d="M194.47,23.78c0-.91.5-1.47,1.05-1.47.28,0,.49.13.7.36h0l-.02-.51v-1.07h.4v4.08h-.33l-.03-.37h-.01c-.19.24-.47.44-.76.44-.6,0-1-.53-1-1.46ZM196.21,24.42v-1.39c-.21-.23-.41-.32-.61-.32-.4,0-.73.42-.73,1.06s.26,1.06.68,1.06c.23,0,.44-.14.65-.41Z" style="fill: #231f20;"/>
      <path d="M201.09,24.23v-2.77h-.82v-.38h1.22v3.18c0,.4.18.57.46.57.13,0,.28-.04.43-.13l.1.36c-.22.11-.37.17-.62.17-.5,0-.77-.34-.77-1Z" style="fill: #231f20;"/>
      <path d="M203.17,24.44c0-.63.49-.93,1.69-1.04-.01-.38-.17-.7-.62-.7-.3,0-.6.17-.81.33l-.16-.32c.24-.18.63-.4,1.04-.4.64,0,.95.45.95,1.15v1.71h-.33l-.03-.38h-.01c-.25.24-.59.45-.91.45-.43,0-.79-.29-.79-.79ZM204.85,24.44v-.72c-.99.09-1.29.33-1.29.69,0,.32.24.44.51.44s.52-.15.79-.41Z" style="fill: #231f20;"/>
      <path d="M205.97,26.31l.08-.38c.06.02.14.04.21.04.32,0,.52-.25.63-.59l.07-.21-1.08-2.79h.4l.56,1.54c.09.25.19.54.29.81h.02c.08-.26.17-.56.25-.81l.5-1.54h.38l-1.03,3.02c-.17.55-.45.97-.98.97-.11,0-.22-.02-.31-.06Z" style="fill: #231f20;"/>
      <path d="M208.8,23.78c0-.94.53-1.47,1.15-1.47s1.15.53,1.15,1.47-.54,1.46-1.15,1.46-1.15-.53-1.15-1.46ZM210.69,23.78c0-.64-.3-1.07-.74-1.07s-.74.43-.74,1.07.3,1.06.74,1.06.74-.42.74-1.06Z" style="fill: #231f20;"/>
      <path d="M211.75,24.11v-1.73h.4v1.67c0,.52.15.77.53.77.27,0,.46-.15.72-.51v-1.93h.4v2.79h-.33l-.03-.49h-.02c-.23.33-.51.56-.86.56-.55,0-.8-.39-.8-1.12Z" style="fill: #231f20;"/>
      <path d="M215.23,24.08v-1.32h-.66v-.36l.67-.03.05-.9h.33v.9h1.14v.38h-1.14v1.33c0,.5.14.76.59.76.22,0,.39-.05.55-.13l.09.35c-.21.09-.43.17-.73.17-.68,0-.9-.46-.9-1.15Z" style="fill: #231f20;"/>
      <path d="M220.43,22.38h.32l.03.36h.01c.22-.25.52-.42.8-.42.63,0,.96.56.96,1.42,0,.95-.5,1.5-1.06,1.5-.22,0-.48-.13-.69-.36h0l.02.53v.94h-.4v-3.96ZM222.16,23.73c0-.61-.19-1.02-.65-1.02-.21,0-.44.13-.68.41v1.39c.22.23.46.32.62.32.41,0,.72-.41.72-1.1Z" style="fill: #231f20;"/>
      <path d="M224.03,24.23v-2.77h-.82v-.38h1.22v3.18c0,.4.18.57.46.57.13,0,.28-.04.43-.13l.1.36c-.22.11-.37.17-.62.17-.5,0-.77-.34-.77-1Z" style="fill: #231f20;"/>
      <path d="M226.1,24.44c0-.63.49-.93,1.69-1.04-.01-.38-.17-.7-.62-.7-.3,0-.6.17-.81.33l-.16-.32c.24-.18.63-.4,1.04-.4.64,0,.95.45.95,1.15v1.71h-.33l-.03-.38h-.01c-.25.24-.59.45-.91.45-.43,0-.79-.29-.79-.79ZM227.79,24.44v-.72c-.99.09-1.29.33-1.29.69,0,.32.24.44.51.44s.52-.15.79-.41Z" style="fill: #231f20;"/>
      <path d="M229.03,22.38h.32l.03.47h.02c.24-.3.51-.54.87-.54.55,0,.8.39.8,1.12v1.73h-.4v-1.67c0-.53-.15-.77-.53-.77-.28,0-.46.17-.73.5v1.94h-.4v-2.79Z" style="fill: #231f20;"/>
      <path d="M231.9,22.38h.32l.03.47h.02c.24-.3.51-.54.87-.54.55,0,.8.39.8,1.12v1.73h-.4v-1.67c0-.53-.15-.77-.53-.77-.28,0-.46.17-.73.5v1.94h-.4v-2.79Z" style="fill: #231f20;"/>
      <path d="M235.82,22.76h-1.07v-.38h1.47v2.79h-.4v-2.4ZM235.67,21.43c0-.22.13-.37.32-.37s.31.15.31.37-.13.37-.31.37-.32-.14-.32-.37Z" style="fill: #231f20;"/>
      <path d="M237.63,22.38h.32l.03.47h.02c.24-.3.51-.54.87-.54.55,0,.8.39.8,1.12v1.73h-.4v-1.67c0-.53-.15-.77-.53-.77-.28,0-.46.17-.73.5v1.94h-.4v-2.79Z" style="fill: #231f20;"/>
      <path d="M240.4,25.68c0-.22.13-.45.38-.62v-.02c-.12-.08-.24-.22-.24-.46,0-.18.1-.38.28-.52v-.02c-.16-.14-.29-.39-.29-.72,0-.61.42-1,.91-1,.13,0,.24.02.34.07h.96v.38h-.6c.1.13.2.34.2.56,0,.6-.4.96-.9.96-.12,0-.26-.03-.39-.1-.11.09-.18.19-.18.32,0,.22.18.32.48.32h.52c.6,0,.88.18.88.65,0,.52-.5.98-1.29.98-.68,0-1.07-.28-1.07-.77ZM242.37,25.55c0-.26-.18-.34-.53-.34h-.45c-.13,0-.25-.01-.35-.05-.22.14-.3.3-.3.46,0,.29.26.48.76.48.54,0,.87-.27.87-.56ZM241.98,23.31c0-.39-.24-.65-.53-.65s-.54.26-.54.65.24.66.54.66.53-.26.53-.66Z" style="fill: #231f20;"/>
    </g>
  </g>
  <path d="M68.23,301.88l8.93-9.48-4.22-1c1.22-3.26,3.19-7.33,6.42-11.42,5.25-6.63,11.11-9.84,15.25-12.06,10.14-5.42,19.96-6.88,26.74-7.18-3.14-.32-7.9-.49-13.8.45-5.34.85-14.06,2.25-22.64,8.51-10.16,7.42-14.11,17.26-15.35,20.9l-5.09-1.2,3.74,12.48Z" style="fill: #231f20;"/>
  <path d="M175.9,215.08l3.27-9.32-3.23.61c-.16-2.63-.05-6.06.93-9.89,1.6-6.21,4.67-10.25,6.85-13.06,5.35-6.88,11.71-10.92,16.32-13.22-2.28.75-5.63,2.09-9.43,4.57-3.43,2.24-9.05,5.9-13.07,12.88-4.76,8.27-4.45,16.31-4.19,19.21l-3.9.73,6.44,7.49Z" style="fill: #231f20;"/>
  <path d="M144.79,116.86l-9.68-1.84,2.14-2.49c-2.19-1.45-5.2-3.08-9-4.14-6.16-1.73-11.17-1.1-14.69-.61-8.61,1.18-15.28,4.64-19.56,7.47,1.78-1.59,4.62-3.81,8.65-5.85,3.65-1.84,9.61-4.86,17.64-4.83,9.51.03,16.3,4.31,18.67,5.99l2.58-2.99,3.25,9.3Z" style="fill: #231f20;"/>
  <path d="M196.02,402.92l-6.92-9.85,4-.36c-.68-3.14-1.95-7.13-4.37-11.3-3.93-6.76-8.87-10.47-12.36-13.05-8.56-6.3-17.35-8.93-23.52-10.1,2.92.13,7.29.59,12.57,2.24,4.77,1.49,12.57,3.92,19.59,10.78,8.32,8.13,10.62,17.65,11.28,21.14l4.81-.43-5.07,10.92Z" style="fill: #231f20;"/>
  <path d="M84.03,66.33l11.54-8.65-4.42-1.89c1.94-3.32,4.86-7.4,9.17-11.24,6.98-6.24,13.98-8.64,18.92-10.27,12.08-4,23.07-3.73,30.53-2.77-3.37-.94-8.53-2.03-15.14-2.12-5.98-.08-15.77-.2-26.3,5-12.49,6.17-18.65,16.16-20.69,19.89l-5.32-2.27,1.72,14.32Z" style="fill: #231f20;"/>
  <g>
    <path d="M9.67,324.85h1.31l1.53,5.17c.34,1.13.57,2.05.92,3.16h.06c.35-1.11.6-2.03.92-3.16l1.53-5.17h1.26l-3.04,9.59h-1.43l-3.07-9.59Z" style="fill: #231f20;"/>
    <path d="M18.82,330.87c0-2.31,1.72-3.71,3.62-3.71,2.05,0,3.24,1.33,3.24,3.33,0,.28-.03.54-.06.73h-6.01v-.94h5.29l-.31.34c0-1.68-.83-2.51-2.13-2.51s-2.45.99-2.45,2.76,1.2,2.78,2.78,2.78c.85,0,1.52-.26,2.16-.67l.44.79c-.7.47-1.61.85-2.75.85-2.13,0-3.83-1.37-3.83-3.74Z" style="fill: #231f20;"/>
    <path d="M28.72,327.33h1.01l.12,1.68h.03c.75-1.15,1.86-1.86,3.17-1.86.53,0,.96.07,1.4.29l-.28,1.04c-.5-.16-.76-.23-1.31-.23-1.07,0-2.08.54-2.92,2.03v4.15h-1.21v-7.1Z" style="fill: #231f20;"/>
    <path d="M36.41,333.5l.56-.8c.82.58,1.78.96,3.08.96,1.2,0,1.78-.5,1.78-1.1,0-.54-.28-.92-2.21-1.32-1.86-.38-2.78-1.01-2.78-2.07,0-1.14,1.01-2.02,2.95-2.02,1.08,0,2.16.42,2.86.91l-.58.77c-.66-.45-1.48-.75-2.38-.75-1.2,0-1.64.48-1.64,1.02,0,.61.61.88,2.07,1.18,2.35.51,2.92,1.1,2.92,2.19,0,1.15-1.13,2.12-3.16,2.12-1.39,0-2.63-.51-3.49-1.11Z" style="fill: #231f20;"/>
    <path d="M48.74,328.31h-3.29v-.98h4.5v7.1h-1.21v-6.12ZM48.26,324.9c0-.56.41-.94.96-.94s.96.38.96.94-.41.94-.96.94-.96-.37-.96-.94Z" style="fill: #231f20;"/>
    <path d="M53.79,330.9c0-2.38,1.64-3.74,3.51-3.74s3.51,1.36,3.51,3.74-1.64,3.71-3.51,3.71-3.51-1.36-3.51-3.71ZM59.56,330.9c0-1.64-.91-2.73-2.26-2.73s-2.27,1.1-2.27,2.73.91,2.7,2.27,2.7,2.26-1.08,2.26-2.7Z" style="fill: #231f20;"/>
    <path d="M63.05,327.33h.99l.1,1.2h.06c.75-.77,1.56-1.37,2.67-1.37,1.68,0,2.45.99,2.45,2.86v4.41h-1.21v-4.25c0-1.34-.47-1.97-1.62-1.97-.85,0-1.42.42-2.24,1.27v4.95h-1.21v-7.1Z" style="fill: #231f20;"/>
    <path d="M80.18,329.64c0-3.08,1.8-4.97,4.3-4.97,1.15,0,2.06.56,2.63,1.17l-.7.77c-.5-.53-1.13-.86-1.93-.86-1.83,0-3.03,1.48-3.03,3.86s1.2,3.92,3.03,3.92c.88,0,1.55-.38,2.15-1.05l.7.75c-.75.88-1.7,1.39-2.97,1.39-2.37,0-4.18-1.84-4.18-4.97Z" style="fill: #231f20;"/>
    <path d="M88.88,330.9c0-2.38,1.64-3.74,3.51-3.74s3.51,1.36,3.51,3.74-1.64,3.71-3.51,3.71-3.51-1.36-3.51-3.71ZM94.65,330.9c0-1.64-.91-2.73-2.26-2.73s-2.27,1.1-2.27,2.73.91,2.7,2.27,2.7,2.26-1.08,2.26-2.7Z" style="fill: #231f20;"/>
    <path d="M98.13,327.33h.99l.1,1.2h.06c.75-.77,1.56-1.37,2.67-1.37,1.68,0,2.46.99,2.46,2.86v4.41h-1.21v-4.25c0-1.34-.47-1.97-1.62-1.97-.85,0-1.42.42-2.23,1.27v4.95h-1.21v-7.1Z" style="fill: #231f20;"/>
    <path d="M108.55,331.67v-3.36h-2.02v-.91l2.06-.07.16-2.28h1.01v2.28h3.48v.98h-3.48v3.38c0,1.27.42,1.93,1.8,1.93.66,0,1.18-.13,1.7-.32l.26.89c-.64.23-1.33.42-2.22.42-2.08,0-2.75-1.18-2.75-2.94Z" style="fill: #231f20;"/>
    <path d="M116.44,327.33h1.01l.12,1.68h.03c.74-1.15,1.86-1.86,3.17-1.86.53,0,.97.07,1.4.29l-.28,1.04c-.5-.16-.76-.23-1.32-.23-1.07,0-2.08.54-2.92,2.03v4.15h-1.21v-7.1Z" style="fill: #231f20;"/>
    <path d="M123.97,330.9c0-2.38,1.64-3.74,3.51-3.74s3.51,1.36,3.51,3.74-1.64,3.71-3.51,3.71-3.51-1.36-3.51-3.71ZM129.74,330.9c0-1.64-.91-2.73-2.26-2.73s-2.26,1.1-2.26,2.73.91,2.7,2.26,2.7,2.26-1.08,2.26-2.7Z" style="fill: #231f20;"/>
    <path d="M135.46,332.05v-7.04h-2.51v-.98h3.72v8.11c0,1.02.56,1.46,1.4,1.46.41,0,.85-.1,1.33-.32l.31.91c-.66.28-1.12.42-1.9.42-1.52,0-2.35-.88-2.35-2.56Z" style="fill: #231f20;"/>
  </g>
  <g>
    <path d="M17.13,346.5h.94v-3.54h-.94v-.49h2.37v.49h-.94v3.54h.94v.49h-2.37v-.49Z" style="fill: #231f20;"/>
    <path d="M21.25,345.69v-1.58h-.8v-.43l.82-.03.06-1.07h.4v1.07h1.38v.46h-1.38v1.59c0,.6.17.91.71.91.26,0,.47-.06.67-.15l.1.42c-.25.11-.53.2-.88.2-.82,0-1.09-.56-1.09-1.38Z" style="fill: #231f20;"/>
    <path d="M23.92,345.31c0-1.09.68-1.75,1.44-1.75.81,0,1.28.63,1.28,1.57,0,.13-.01.25-.02.34h-2.38v-.44h2.09l-.12.16c0-.79-.33-1.18-.84-1.18s-.97.47-.97,1.3.47,1.31,1.1,1.31c.34,0,.6-.12.86-.32l.17.37c-.28.22-.64.4-1.09.4-.85,0-1.52-.65-1.52-1.76Z" style="fill: #231f20;"/>
    <path d="M27.84,343.64h.4l.05.79h.01c.29-.54.74-.87,1.26-.87.21,0,.38.03.56.14l-.11.49c-.2-.08-.3-.11-.52-.11-.42,0-.82.25-1.16.96v1.95h-.48v-3.34Z" style="fill: #231f20;"/>
    <path d="M30.94,346.12c0-.75.59-1.11,2.04-1.25-.02-.45-.2-.84-.75-.84-.36,0-.72.21-.98.4l-.19-.38c.29-.22.76-.48,1.26-.48.77,0,1.15.54,1.15,1.38v2.05h-.4l-.04-.45h-.02c-.31.29-.71.54-1.11.54-.53,0-.96-.35-.96-.95ZM32.98,346.11v-.87c-1.2.11-1.57.39-1.57.83,0,.38.29.53.61.53s.63-.18.95-.5Z" style="fill: #231f20;"/>
    <path d="M35.14,345.69v-1.58h-.8v-.43l.82-.03.06-1.07h.4v1.07h1.38v.46h-1.38v1.59c0,.6.17.91.71.91.26,0,.47-.06.67-.15l.1.42c-.26.11-.53.2-.88.2-.82,0-1.09-.56-1.09-1.38Z" style="fill: #231f20;"/>
    <path d="M39.25,344.11h-1.3v-.46h1.78v3.34h-.48v-2.88ZM39.06,342.5c0-.26.16-.44.38-.44s.38.18.38.44-.16.44-.38.44-.38-.17-.38-.44Z" style="fill: #231f20;"/>
    <path d="M41.19,343.64h.49l.65,1.89c.11.34.21.67.31.99h.02c.1-.32.19-.65.31-.99l.65-1.89h.46l-1.17,3.34h-.54l-1.19-3.34Z" style="fill: #231f20;"/>
    <path d="M44.77,345.31c0-1.09.68-1.75,1.44-1.75.81,0,1.28.63,1.28,1.57,0,.13-.01.25-.02.34h-2.38v-.44h2.09l-.12.16c0-.79-.33-1.18-.84-1.18s-.97.47-.97,1.3.47,1.31,1.1,1.31c.34,0,.6-.12.86-.32l.17.37c-.28.22-.64.4-1.09.4-.85,0-1.52-.65-1.52-1.76Z" style="fill: #231f20;"/>
    <path d="M51.67,345.32c0-1.09.61-1.76,1.27-1.76.34,0,.6.16.84.43h.01l-.02-.61v-1.29h.48v4.9h-.39l-.04-.44h-.02c-.23.28-.57.52-.92.52-.73,0-1.21-.63-1.21-1.75ZM53.77,346.09v-1.67c-.25-.28-.49-.38-.74-.38-.49,0-.88.51-.88,1.27s.31,1.27.83,1.27c.28,0,.54-.17.79-.5Z" style="fill: #231f20;"/>
    <path d="M55.19,345.31c0-1.09.68-1.75,1.44-1.75.81,0,1.28.63,1.28,1.57,0,.13-.01.25-.02.34h-2.38v-.44h2.09l-.12.16c0-.79-.33-1.18-.85-1.18s-.97.47-.97,1.3.47,1.31,1.1,1.31c.34,0,.6-.12.86-.32l.17.37c-.28.22-.64.4-1.09.4-.84,0-1.52-.65-1.52-1.76Z" style="fill: #231f20;"/>
    <path d="M58.56,343.64h.49l.65,1.89c.11.34.21.67.31.99h.02c.1-.32.19-.65.31-.99l.65-1.89h.46l-1.17,3.34h-.54l-1.19-3.34Z" style="fill: #231f20;"/>
    <path d="M62.13,345.31c0-1.09.68-1.75,1.44-1.75.81,0,1.28.63,1.28,1.57,0,.13-.01.25-.02.34h-2.38v-.44h2.09l-.12.16c0-.79-.33-1.18-.85-1.18s-.97.47-.97,1.3.47,1.31,1.1,1.31c.34,0,.6-.12.86-.32l.17.37c-.28.22-.64.4-1.09.4-.84,0-1.52-.65-1.52-1.76Z" style="fill: #231f20;"/>
    <path d="M66.64,345.87v-3.32h-1v-.46h1.48v3.82c0,.48.22.69.56.69.16,0,.34-.05.53-.15l.12.43c-.26.13-.45.2-.75.2-.6,0-.93-.41-.93-1.2Z" style="fill: #231f20;"/>
    <path d="M69.04,345.32c0-1.12.65-1.76,1.39-1.76s1.39.64,1.39,1.76-.65,1.75-1.39,1.75-1.39-.64-1.39-1.75ZM71.32,345.32c0-.77-.36-1.29-.9-1.29s-.9.52-.9,1.29.36,1.27.9,1.27.9-.51.9-1.27Z" style="fill: #231f20;"/>
    <path d="M72.7,343.64h.39l.04.43h.02c.26-.3.63-.51.97-.51.76,0,1.16.67,1.16,1.71,0,1.14-.6,1.8-1.28,1.8-.26,0-.58-.16-.84-.43h-.01l.02.63v1.13h-.48v-4.75ZM74.8,345.27c0-.74-.23-1.22-.79-1.22-.25,0-.54.15-.82.5v1.67c.26.28.56.39.75.39.5,0,.87-.5.87-1.32Z" style="fill: #231f20;"/>
    <path d="M75.97,343.64h.38l.04.44h.01c.15-.31.32-.52.64-.52.28,0,.45.19.53.58.16-.36.34-.58.66-.58.39,0,.62.36.62,1.03v2.39h-.47v-2.35c0-.39-.09-.58-.3-.58-.2,0-.3.17-.45.52v2.42h-.44v-2.35c0-.39-.08-.58-.29-.58-.2,0-.32.17-.46.52v2.42h-.47v-3.34Z" style="fill: #231f20;"/>
    <path d="M79.5,345.31c0-1.09.68-1.75,1.44-1.75.81,0,1.28.63,1.28,1.57,0,.13-.01.25-.02.34h-2.38v-.44h2.09l-.12.16c0-.79-.33-1.18-.84-1.18s-.97.47-.97,1.3.47,1.31,1.1,1.31c.34,0,.6-.12.86-.32l.17.37c-.28.22-.64.4-1.09.4-.85,0-1.52-.65-1.52-1.76Z" style="fill: #231f20;"/>
    <path d="M83.12,343.64h.39l.04.56h.02c.29-.36.62-.65,1.06-.65.67,0,.97.47.97,1.35v2.08h-.48v-2c0-.63-.19-.93-.64-.93-.34,0-.56.2-.89.6v2.33h-.48v-3.34Z" style="fill: #231f20;"/>
    <path d="M87.25,345.69v-1.58h-.8v-.43l.82-.03.06-1.07h.4v1.07h1.38v.46h-1.38v1.59c0,.6.17.91.71.91.26,0,.47-.06.67-.15l.1.42c-.25.11-.53.2-.88.2-.82,0-1.09-.56-1.09-1.38Z" style="fill: #231f20;"/>
    <path d="M93.47,346.12c0-.75.59-1.11,2.04-1.25-.02-.45-.2-.84-.75-.84-.36,0-.72.21-.98.4l-.19-.38c.29-.22.76-.48,1.26-.48.77,0,1.15.54,1.15,1.38v2.05h-.4l-.04-.45h-.02c-.31.29-.71.54-1.11.54-.53,0-.96-.35-.96-.95ZM95.51,346.11v-.87c-1.2.11-1.57.39-1.57.83,0,.38.29.53.61.53s.63-.18.95-.5Z" style="fill: #231f20;"/>
    <path d="M97.02,343.64h.39l.04.56h.02c.29-.36.62-.65,1.06-.65.67,0,.97.47.97,1.35v2.08h-.48v-2c0-.63-.19-.93-.64-.93-.34,0-.56.2-.89.6v2.33h-.48v-3.34Z" style="fill: #231f20;"/>
    <path d="M100.3,345.32c0-1.09.61-1.76,1.27-1.76.34,0,.6.16.84.43h.01l-.02-.61v-1.29h.48v4.9h-.39l-.04-.44h-.02c-.23.28-.57.52-.92.52-.73,0-1.21-.63-1.21-1.75ZM102.41,346.09v-1.67c-.25-.28-.49-.38-.74-.38-.49,0-.88.51-.88,1.27s.31,1.27.83,1.27c.28,0,.54-.17.79-.5Z" style="fill: #231f20;"/>
    <path d="M107.19,343.64h.49l.65,1.89c.11.34.21.67.31.99h.02c.1-.32.19-.65.31-.99l.65-1.89h.46l-1.17,3.34h-.54l-1.19-3.34Z" style="fill: #231f20;"/>
    <path d="M110.77,345.31c0-1.09.68-1.75,1.44-1.75.81,0,1.28.63,1.28,1.57,0,.13-.01.25-.02.34h-2.38v-.44h2.09l-.12.16c0-.79-.33-1.18-.85-1.18s-.97.47-.97,1.3.47,1.31,1.1,1.31c.34,0,.6-.12.86-.32l.17.37c-.28.22-.64.4-1.09.4-.84,0-1.52-.65-1.52-1.76Z" style="fill: #231f20;"/>
    <path d="M114.69,343.64h.4l.05.79h.01c.29-.54.74-.87,1.26-.87.21,0,.38.03.56.14l-.11.49c-.2-.08-.3-.11-.52-.11-.42,0-.82.25-1.16.96v1.95h-.48v-3.34Z" style="fill: #231f20;"/>
    <path d="M117.73,346.55l.22-.38c.32.28.71.45,1.22.45.47,0,.71-.23.71-.52,0-.25-.11-.43-.87-.62-.74-.18-1.1-.48-1.1-.98,0-.54.4-.95,1.17-.95.43,0,.86.2,1.13.43l-.23.36c-.26-.21-.58-.35-.94-.35-.47,0-.65.23-.65.48,0,.29.24.41.82.56.93.24,1.16.52,1.16,1.03,0,.54-.45,1-1.25,1-.55,0-1.04-.24-1.38-.52Z" style="fill: #231f20;"/>
    <path d="M122.62,344.11h-1.3v-.46h1.78v3.34h-.48v-2.88ZM122.43,342.5c0-.26.16-.44.38-.44s.38.18.38.44-.16.44-.38.44-.38-.17-.38-.44Z" style="fill: #231f20;"/>
    <path d="M124.62,345.32c0-1.12.65-1.76,1.39-1.76s1.39.64,1.39,1.76-.65,1.75-1.39,1.75-1.39-.64-1.39-1.75ZM126.9,345.32c0-.77-.36-1.29-.9-1.29s-.9.52-.9,1.29.36,1.27.9,1.27.9-.51.9-1.27Z" style="fill: #231f20;"/>
    <path d="M128.28,343.64h.39l.04.56h.02c.3-.36.62-.65,1.06-.65.67,0,.97.47.97,1.35v2.08h-.48v-2c0-.63-.18-.93-.64-.93-.34,0-.56.2-.89.6v2.33h-.48v-3.34Z" style="fill: #231f20;"/>
    <path d="M17.04,353.58c0-1.12.72-1.76,1.57-1.76.46,0,.79.22,1.02.49l-.24.36c-.23-.23-.47-.38-.77-.38-.65,0-1.09.52-1.09,1.29s.44,1.27,1.08,1.27c.35,0,.64-.19.87-.42l.21.37c-.31.33-.7.52-1.12.52-.88,0-1.54-.64-1.54-1.75Z" style="fill: #231f20;"/>
    <path d="M20.4,353.58c0-1.12.65-1.76,1.39-1.76s1.39.64,1.39,1.76-.65,1.75-1.39,1.75-1.39-.64-1.39-1.75ZM22.69,353.58c0-.77-.36-1.29-.9-1.29s-.9.52-.9,1.29.36,1.27.9,1.27.9-.51.9-1.27Z" style="fill: #231f20;"/>
    <path d="M24.07,351.91h.39l.04.56h.02c.3-.36.62-.65,1.06-.65.67,0,.97.47.97,1.35v2.08h-.48v-2c0-.63-.18-.93-.64-.93-.34,0-.56.2-.89.6v2.33h-.48v-3.34Z" style="fill: #231f20;"/>
    <path d="M28.19,353.95v-1.58h-.8v-.43l.82-.03.06-1.07h.4v1.07h1.38v.46h-1.38v1.59c0,.6.17.91.71.91.26,0,.47-.06.67-.15l.1.42c-.26.11-.53.2-.88.2-.82,0-1.09-.56-1.09-1.38Z" style="fill: #231f20;"/>
    <path d="M31.32,351.91h.4l.05.79h.01c.29-.54.74-.87,1.26-.87.21,0,.38.03.56.14l-.11.49c-.2-.08-.3-.11-.52-.11-.42,0-.82.25-1.16.96v1.95h-.48v-3.34Z" style="fill: #231f20;"/>
    <path d="M34.3,353.58c0-1.12.65-1.76,1.39-1.76s1.39.64,1.39,1.76-.65,1.75-1.39,1.75-1.39-.64-1.39-1.75ZM36.58,353.58c0-.77-.36-1.29-.9-1.29s-.9.52-.9,1.29.36,1.27.9,1.27.9-.51.9-1.27Z" style="fill: #231f20;"/>
    <path d="M38.85,354.13v-3.32h-1v-.46h1.48v3.82c0,.48.22.69.56.69.16,0,.34-.05.53-.15l.12.43c-.26.13-.45.2-.75.2-.6,0-.93-.41-.93-1.2Z" style="fill: #231f20;"/>
  </g>
  <g>
    <path d="M151.03,428.51h2.2c2.68,0,4.13,1.59,4.13,4.42s-1.45,4.5-4.08,4.5h-2.26v-8.91ZM153.14,436.49c2.02,0,3.03-1.3,3.03-3.56s-1.01-3.48-3.03-3.48h-.98v7.04h.98Z" style="fill: #231f20;"/>
    <path d="M158.92,434.11c0-2.15,1.6-3.45,3.37-3.45,1.9,0,3.02,1.24,3.02,3.1,0,.26-.03.5-.05.68h-5.59v-.87h4.92l-.29.31c0-1.56-.77-2.34-1.98-2.34s-2.28.92-2.28,2.57,1.11,2.58,2.58,2.58c.79,0,1.41-.24,2.01-.63l.41.73c-.65.43-1.49.79-2.55.79-1.98,0-3.56-1.28-3.56-3.48Z" style="fill: #231f20;"/>
    <path d="M167.42,430.82h.92l.1.84h.04c.61-.58,1.48-1.01,2.28-1.01,1.78,0,2.73,1.32,2.73,3.37,0,2.24-1.41,3.56-3,3.56-.61,0-1.37-.31-1.97-.86h-.03l.05,1.25v2.23h-1.13v-9.39ZM172.34,434.03c0-1.45-.54-2.42-1.86-2.42-.58,0-1.26.3-1.93.98v3.29c.61.56,1.3.76,1.75.76,1.17,0,2.04-.98,2.04-2.61Z" style="fill: #231f20;"/>
    <path d="M177.66,435.21v-6.55h-2.34v-.91h3.46v7.54c0,.95.52,1.36,1.3,1.36.38,0,.79-.1,1.24-.3l.29.84c-.61.26-1.05.39-1.77.39-1.41,0-2.19-.81-2.19-2.38Z" style="fill: #231f20;"/>
    <path d="M183.29,434.13c0-2.21,1.52-3.48,3.26-3.48s3.26,1.26,3.26,3.48-1.52,3.45-3.26,3.45-3.26-1.26-3.26-3.45ZM188.66,434.13c0-1.52-.84-2.54-2.11-2.54s-2.11,1.02-2.11,2.54.84,2.51,2.11,2.51,2.11-1.01,2.11-2.51Z" style="fill: #231f20;"/>
    <path d="M191.54,440.13l.23-.9c.18.05.39.09.6.09.92,0,1.48-.58,1.81-1.4l.19-.49-3.07-6.62h1.14l1.6,3.64c.26.58.54,1.28.82,1.92h.05c.23-.62.49-1.32.71-1.92l1.43-3.64h1.09l-2.92,7.15c-.49,1.3-1.29,2.3-2.8,2.3-.31,0-.64-.05-.87-.14Z" style="fill: #231f20;"/>
    <path d="M199.58,430.82h.9l.09.87h.03c.34-.61.75-1.03,1.51-1.03.65,0,1.06.38,1.25,1.14.38-.71.79-1.14,1.55-1.14.92,0,1.47.72,1.47,2.04v4.73h-1.11v-4.65c0-.76-.22-1.16-.71-1.16-.46,0-.71.34-1.06,1.02v4.78h-1.03v-4.65c0-.76-.19-1.16-.68-1.16-.46,0-.76.34-1.09,1.02v4.78h-1.11v-6.6Z" style="fill: #231f20;"/>
    <path d="M207.87,434.11c0-2.15,1.6-3.45,3.37-3.45,1.9,0,3.02,1.24,3.02,3.1,0,.26-.03.5-.05.68h-5.59v-.87h4.92l-.29.31c0-1.56-.77-2.34-1.98-2.34s-2.28.92-2.28,2.57,1.12,2.58,2.58,2.58c.79,0,1.41-.24,2.01-.63l.41.73c-.65.43-1.49.79-2.55.79-1.98,0-3.56-1.28-3.56-3.48Z" style="fill: #231f20;"/>
    <path d="M216.37,430.82h.92l.1,1.11h.05c.69-.72,1.45-1.28,2.49-1.28,1.56,0,2.28.92,2.28,2.66v4.1h-1.13v-3.95c0-1.25-.43-1.83-1.51-1.83-.79,0-1.32.39-2.08,1.18v4.61h-1.13v-6.6Z" style="fill: #231f20;"/>
    <path d="M226.06,434.85v-3.13h-1.88v-.84l1.92-.07.15-2.12h.94v2.12h3.23v.91h-3.23v3.14c0,1.18.4,1.79,1.67,1.79.61,0,1.1-.12,1.58-.3l.25.83c-.6.22-1.24.39-2.07.39-1.93,0-2.55-1.1-2.55-2.73Z" style="fill: #231f20;"/>
  </g>
  <g>
    <path d="M127.03,444.88h1.31c.96,0,1.61.39,1.61,1.54s-.66,1.62-1.61,1.62h-.76v2.07h-.56v-5.22ZM128.28,447.49c.76,0,1.12-.33,1.12-1.07s-.37-1-1.12-1h-.69v2.07h.69Z" style="fill: #231f20;"/>
    <path d="M130.85,448.64v-2.4h.55v2.32c0,.72.21,1.07.74,1.07.37,0,.64-.21,1-.71v-2.68h.55v3.87h-.46l-.05-.68h-.03c-.33.45-.7.77-1.2.77-.76,0-1.12-.54-1.12-1.56Z" style="fill: #231f20;"/>
    <path d="M135.46,449.67h-.02l-.05.43h-.44v-5.67h.55v1.54l-.03.75h.02c.29-.36.7-.59,1.08-.59.87,0,1.34.77,1.34,1.97,0,1.32-.69,2.09-1.46,2.09-.32,0-.7-.2-1-.53ZM137.35,448.11c0-.85-.27-1.42-.91-1.42-.29,0-.62.18-.94.57v1.93c.3.33.64.45.87.45.56,0,.98-.57.98-1.53Z" style="fill: #231f20;"/>
    <path d="M139.95,448.8v-3.84h-1.14v-.53h1.69v4.42c0,.56.25.8.64.8.18,0,.39-.06.6-.18l.14.49c-.3.15-.51.23-.86.23-.69,0-1.07-.48-1.07-1.39Z" style="fill: #231f20;"/>
    <path d="M144.4,446.76h-1.5v-.53h2.05v3.87h-.55v-3.34ZM144.18,444.91c0-.3.19-.51.44-.51s.44.21.44.51-.18.51-.44.51-.44-.2-.44-.51Z" style="fill: #231f20;"/>
    <path d="M146.77,449.59l.25-.44c.37.32.81.53,1.4.53.54,0,.81-.27.81-.6,0-.29-.13-.5-1-.72-.84-.21-1.26-.55-1.26-1.13,0-.62.46-1.1,1.34-1.1.49,0,.98.23,1.3.49l-.27.42c-.3-.25-.67-.41-1.08-.41-.54,0-.74.26-.74.56,0,.33.28.48.94.64,1.07.28,1.33.6,1.33,1.19,0,.63-.51,1.15-1.44,1.15-.63,0-1.2-.28-1.59-.6Z" style="fill: #231f20;"/>
    <path d="M150.9,444.43h.55v1.54l-.03.92h.02c.33-.43.7-.76,1.2-.76.76,0,1.12.54,1.12,1.56v2.4h-.55v-2.32c0-.73-.21-1.07-.74-1.07-.39,0-.64.23-1.02.69v2.7h-.55v-5.67Z" style="fill: #231f20;"/>
    <path d="M154.72,448.16c0-1.26.78-2.02,1.65-2.02.93,0,1.47.72,1.47,1.82,0,.15-.01.29-.03.4h-2.73v-.51h2.4l-.14.18c0-.92-.38-1.37-.97-1.37s-1.12.54-1.12,1.5.54,1.51,1.26,1.51c.39,0,.69-.14.98-.37l.2.43c-.32.25-.73.46-1.25.46-.97,0-1.74-.75-1.74-2.04Z" style="fill: #231f20;"/>
    <path d="M158.66,448.17c0-1.26.7-2.04,1.46-2.04.39,0,.68.18.97.49h.01l-.03-.71v-1.49h.55v5.67h-.45l-.05-.51h-.02c-.27.33-.65.6-1.06.6-.84,0-1.39-.73-1.39-2.02ZM161.08,449.07v-1.93c-.29-.33-.56-.45-.84-.45-.56,0-1.01.59-1.01,1.47s.36,1.47.95,1.47c.32,0,.62-.19.9-.57Z" style="fill: #231f20;"/>
    <path d="M166.77,449.1c0-.87.68-1.29,2.35-1.45-.02-.53-.23-.97-.86-.97-.42,0-.83.24-1.13.46l-.22-.45c.33-.25.88-.56,1.44-.56.88,0,1.32.63,1.32,1.59v2.37h-.46l-.05-.53h-.02c-.35.33-.82.62-1.27.62-.6,0-1.1-.41-1.1-1.1ZM169.11,449.09v-1c-1.38.13-1.8.45-1.8.96,0,.44.33.61.7.61s.72-.21,1.1-.57Z" style="fill: #231f20;"/>
    <path d="M170.84,446.23h.45l.05.65h.03c.34-.42.71-.75,1.22-.75.76,0,1.12.54,1.12,1.56v2.4h-.55v-2.32c0-.73-.21-1.07-.74-1.07-.39,0-.64.23-1.02.69v2.7h-.55v-3.87Z" style="fill: #231f20;"/>
    <path d="M174.61,448.17c0-1.26.7-2.04,1.46-2.04.39,0,.68.18.97.49h.01l-.03-.71v-1.49h.55v5.67h-.45l-.05-.51h-.02c-.27.33-.65.6-1.06.6-.84,0-1.39-.73-1.39-2.02ZM177.03,449.07v-1.93c-.29-.33-.56-.45-.84-.45-.56,0-1.01.59-1.01,1.47s.36,1.47.95,1.47c.32,0,.62-.19.9-.57Z" style="fill: #231f20;"/>
    <path d="M182.72,449.1c0-.87.68-1.29,2.35-1.45-.02-.53-.23-.97-.86-.97-.42,0-.83.24-1.13.46l-.22-.45c.33-.25.88-.56,1.44-.56.88,0,1.32.63,1.32,1.59v2.37h-.46l-.05-.53h-.02c-.35.33-.82.62-1.27.62-.6,0-1.1-.41-1.1-1.1ZM185.06,449.09v-1c-1.38.13-1.8.45-1.8.96,0,.44.33.61.7.61s.72-.21,1.1-.57Z" style="fill: #231f20;"/>
    <path d="M186.71,448.17c0-1.3.82-2.04,1.8-2.04.52,0,.91.25,1.18.57l-.27.42c-.27-.27-.54-.44-.88-.44-.74,0-1.26.6-1.26,1.49s.51,1.47,1.24,1.47c.4,0,.73-.22,1-.49l.25.43c-.36.38-.8.6-1.28.6-1.01,0-1.77-.74-1.77-2.02Z" style="fill: #231f20;"/>
    <path d="M190.69,448.17c0-1.3.82-2.04,1.8-2.04.52,0,.91.25,1.17.57l-.27.42c-.27-.27-.55-.44-.88-.44-.74,0-1.26.6-1.26,1.49s.51,1.47,1.24,1.47c.4,0,.73-.22,1-.49l.25.43c-.36.38-.8.6-1.28.6-1.01,0-1.77-.74-1.77-2.02Z" style="fill: #231f20;"/>
    <path d="M194.6,448.16c0-1.26.78-2.02,1.65-2.02.93,0,1.47.72,1.47,1.82,0,.15-.01.29-.03.4h-2.73v-.51h2.4l-.14.18c0-.92-.38-1.37-.97-1.37s-1.12.54-1.12,1.5.54,1.51,1.26,1.51c.39,0,.69-.14.98-.37l.2.43c-.32.25-.73.46-1.25.46-.97,0-1.74-.75-1.74-2.04Z" style="fill: #231f20;"/>
    <path d="M198.61,449.59l.25-.44c.37.32.81.53,1.4.53.55,0,.81-.27.81-.6,0-.29-.13-.5-1-.72-.84-.21-1.26-.55-1.26-1.13,0-.62.46-1.1,1.34-1.1.49,0,.98.23,1.3.49l-.27.42c-.3-.25-.67-.41-1.08-.41-.55,0-.74.26-.74.56,0,.33.28.48.94.64,1.07.28,1.33.6,1.33,1.19,0,.63-.51,1.15-1.43,1.15-.63,0-1.2-.28-1.59-.6Z" style="fill: #231f20;"/>
    <path d="M202.6,449.59l.25-.44c.37.32.81.53,1.4.53.54,0,.81-.27.81-.6,0-.29-.13-.5-1-.72-.84-.21-1.26-.55-1.26-1.13,0-.62.46-1.1,1.34-1.1.49,0,.98.23,1.3.49l-.27.42c-.3-.25-.67-.41-1.08-.41-.54,0-.74.26-.74.56,0,.33.28.48.94.64,1.07.28,1.33.6,1.33,1.19,0,.63-.51,1.15-1.44,1.15-.63,0-1.2-.28-1.59-.6Z" style="fill: #231f20;"/>
    <path d="M208.21,446.76h-1.5v-.53h2.05v3.87h-.55v-3.34ZM207.99,444.91c0-.3.19-.51.44-.51s.44.21.44.51-.18.51-.44.51-.44-.2-.44-.51Z" style="fill: #231f20;"/>
    <path d="M211.23,449.67h-.02l-.05.43h-.44v-5.67h.55v1.54l-.03.75h.02c.29-.36.7-.59,1.08-.59.87,0,1.34.77,1.34,1.97,0,1.32-.69,2.09-1.46,2.09-.32,0-.7-.2-1-.53ZM213.13,448.11c0-.85-.27-1.42-.91-1.42-.29,0-.62.18-.94.57v1.93c.3.33.64.45.87.45.56,0,.98-.57.98-1.53Z" style="fill: #231f20;"/>
    <path d="M215.73,448.8v-3.84h-1.14v-.53h1.69v4.42c0,.56.25.8.64.8.19,0,.39-.06.6-.18l.14.49c-.3.15-.51.23-.86.23-.69,0-1.07-.48-1.07-1.39Z" style="fill: #231f20;"/>
    <path d="M218.53,448.16c0-1.26.78-2.02,1.65-2.02.93,0,1.47.72,1.47,1.82,0,.15-.01.29-.03.4h-2.73v-.51h2.4l-.14.18c0-.92-.38-1.37-.97-1.37s-1.12.54-1.12,1.5.54,1.51,1.26,1.51c.39,0,.69-.14.98-.37l.2.43c-.32.25-.73.46-1.25.46-.97,0-1.74-.75-1.74-2.04Z" style="fill: #231f20;"/>
    <path d="M226.46,448.17c0-1.3.74-2.04,1.59-2.04s1.59.74,1.59,2.04-.74,2.02-1.59,2.02-1.59-.74-1.59-2.02ZM229.08,448.17c0-.89-.41-1.49-1.03-1.49s-1.03.6-1.03,1.49.41,1.47,1.03,1.47,1.03-.59,1.03-1.47Z" style="fill: #231f20;"/>
    <path d="M230.66,446.23h.45l.05.65h.03c.34-.42.71-.75,1.22-.75.76,0,1.12.54,1.12,1.56v2.4h-.55v-2.32c0-.73-.21-1.07-.74-1.07-.39,0-.64.23-1.02.69v2.7h-.55v-3.87Z" style="fill: #231f20;"/>
    <path d="M235.67,448.8v-3.84h-1.14v-.53h1.69v4.42c0,.56.25.8.64.8.18,0,.39-.06.6-.18l.14.49c-.3.15-.51.23-.86.23-.69,0-1.07-.48-1.07-1.39Z" style="fill: #231f20;"/>
    <path d="M240.11,446.76h-1.5v-.53h2.05v3.87h-.55v-3.34ZM239.9,444.91c0-.3.19-.51.44-.51s.44.21.44.51-.18.51-.44.51-.44-.2-.44-.51Z" style="fill: #231f20;"/>
    <path d="M242.63,446.23h.45l.05.65h.03c.34-.42.71-.75,1.22-.75.76,0,1.12.54,1.12,1.56v2.4h-.55v-2.32c0-.73-.21-1.07-.74-1.07-.39,0-.64.23-1.02.69v2.7h-.55v-3.87Z" style="fill: #231f20;"/>
    <path d="M246.45,448.16c0-1.26.78-2.02,1.65-2.02.93,0,1.47.72,1.47,1.82,0,.15-.01.29-.03.4h-2.73v-.51h2.4l-.14.18c0-.92-.38-1.37-.97-1.37s-1.12.54-1.12,1.5.55,1.51,1.26,1.51c.39,0,.69-.14.98-.37l.2.43c-.32.25-.73.46-1.25.46-.97,0-1.74-.75-1.74-2.04Z" style="fill: #231f20;"/>
  </g>
  <g>
    <path d="M143.53,140.46h.99l1.16,3.9c.25.85.43,1.54.69,2.38h.04c.26-.84.45-1.53.69-2.38l1.16-3.9h.95l-2.29,7.23h-1.08l-2.31-7.23Z" style="fill: #231f20;"/>
    <path d="M153.15,143.07h-2.48v-.74h3.39v5.35h-.91v-4.62ZM152.78,140.5c0-.42.31-.71.73-.71s.73.29.73.71-.31.71-.73.71-.73-.28-.73-.71Z" style="fill: #231f20;"/>
    <path d="M157.07,146.98l.42-.61c.62.44,1.34.73,2.32.73.9,0,1.34-.37,1.34-.83,0-.41-.21-.69-1.66-.99-1.4-.29-2.09-.76-2.09-1.56,0-.86.76-1.52,2.23-1.52.81,0,1.63.32,2.16.68l-.44.58c-.5-.34-1.11-.56-1.8-.56-.9,0-1.23.36-1.23.77,0,.46.46.66,1.56.89,1.77.39,2.2.83,2.2,1.65,0,.87-.85,1.6-2.38,1.6-1.05,0-1.98-.39-2.63-.84Z" style="fill: #231f20;"/>
    <path d="M163.75,145.66v-3.33h.91v3.21c0,1,.35,1.49,1.23,1.49.62,0,1.07-.29,1.66-.98v-3.71h.91v5.35h-.76l-.08-.94h-.04c-.54.63-1.17,1.07-1.99,1.07-1.27,0-1.85-.75-1.85-2.16Z" style="fill: #231f20;"/>
    <path d="M170.4,146.3c0-1.2,1.12-1.79,3.89-2.01-.03-.73-.39-1.34-1.42-1.34-.69,0-1.38.33-1.87.64l-.36-.62c.55-.35,1.45-.77,2.39-.77,1.47,0,2.18.87,2.18,2.2v3.28h-.76l-.08-.73h-.03c-.58.46-1.36.86-2.1.86-1,0-1.83-.56-1.83-1.52ZM174.29,146.29v-1.39c-2.29.18-2.99.63-2.99,1.33,0,.61.55.85,1.17.85s1.2-.29,1.82-.79Z" style="fill: #231f20;"/>
    <path d="M178.84,145.89v-5.31h-1.89v-.74h2.81v6.12c0,.77.42,1.1,1.06,1.1.31,0,.64-.08,1-.24l.23.68c-.5.21-.85.32-1.43.32-1.15,0-1.77-.66-1.77-1.93Z" style="fill: #231f20;"/>
    <path d="M190.1,146.75l.55-.64c.55.54,1.3.89,2.12.89.99,0,1.56-.47,1.56-1.14,0-.77-.56-.99-1.29-1.3l-1.05-.46c-.72-.29-1.55-.79-1.55-1.86s.99-1.92,2.37-1.92c.9,0,1.7.36,2.23.89l-.48.59c-.47-.42-1.02-.67-1.77-.67-.84,0-1.4.4-1.4,1.05,0,.69.67.95,1.29,1.19l1.01.45c.89.35,1.6.86,1.6,1.93,0,1.15-.97,2.06-2.56,2.06-1.06,0-1.97-.42-2.62-1.07Z" style="fill: #231f20;"/>
    <path d="M198.25,145.6v-2.53h-1.52v-.68l1.55-.06.12-1.72h.76v1.72h2.62v.74h-2.62v2.55c0,.96.32,1.45,1.36,1.45.5,0,.89-.1,1.28-.24l.2.67c-.49.18-1,.32-1.67.32-1.57,0-2.07-.89-2.07-2.21Z" style="fill: #231f20;"/>
    <path d="M203.33,149.88l.19-.73c.14.04.32.08.48.08.75,0,1.2-.47,1.47-1.13l.15-.4-2.49-5.37h.93l1.3,2.95c.21.47.44,1.04.66,1.55h.04c.19-.51.4-1.07.57-1.55l1.16-2.95h.88l-2.37,5.8c-.4,1.06-1.05,1.86-2.27,1.86-.25,0-.52-.04-.71-.11Z" style="fill: #231f20;"/>
    <path d="M211.92,145.89v-5.31h-1.89v-.74h2.81v6.12c0,.77.42,1.1,1.06,1.1.31,0,.64-.08,1-.24l.23.68c-.5.21-.85.32-1.43.32-1.15,0-1.77-.66-1.77-1.93Z" style="fill: #231f20;"/>
    <path d="M219.29,143.07h-2.48v-.74h3.39v5.35h-.91v-4.62ZM218.93,140.5c0-.42.31-.71.73-.71s.73.29.73.71-.31.71-.73.71-.73-.28-.73-.71Z" style="fill: #231f20;"/>
    <path d="M223.46,142.33h.75l.08.9h.04c.56-.58,1.18-1.04,2.02-1.04,1.27,0,1.85.75,1.85,2.16v3.33h-.91v-3.21c0-1.01-.35-1.49-1.22-1.49-.64,0-1.07.32-1.69.96v3.74h-.91v-5.35Z" style="fill: #231f20;"/>
    <path d="M229.84,148.67c0-.43.31-.86.88-1.19v-.04c-.29-.15-.55-.43-.55-.88,0-.34.23-.73.64-1v-.04c-.36-.28-.66-.75-.66-1.39,0-1.17.97-1.92,2.1-1.92.31,0,.56.04.79.13h2.22v.74h-1.39c.24.25.45.65.45,1.08,0,1.15-.92,1.84-2.07,1.84-.28,0-.61-.07-.9-.2-.26.16-.42.36-.42.62,0,.42.41.62,1.11.62h1.2c1.38,0,2.04.35,2.04,1.26,0,1-1.16,1.87-2.97,1.87-1.56,0-2.47-.54-2.47-1.49ZM234.39,148.42c0-.51-.41-.65-1.22-.65h-1.05c-.31,0-.58-.02-.82-.09-.51.28-.68.58-.68.89,0,.56.61.92,1.75.92,1.25,0,2.02-.52,2.02-1.07ZM233.49,144.12c0-.75-.55-1.26-1.23-1.26s-1.23.51-1.23,1.26.56,1.27,1.23,1.27,1.23-.5,1.23-1.27Z" style="fill: #231f20;"/>
  </g>
  <g>
    <path d="M130.36,159.25h.59l.69,2.66c.15.58.26,1.05.41,1.63h.03c.16-.57.27-1.05.41-1.63l.69-2.66h.57l-1.37,4.93h-.64l-1.38-4.93Z" style="fill: #231f20;"/>
    <path d="M136.11,161.03h-1.48v-.5h2.03v3.66h-.55v-3.15ZM135.89,159.28c0-.29.18-.48.44-.48s.43.2.43.48-.18.48-.43.48-.44-.19-.44-.48Z" style="fill: #231f20;"/>
    <path d="M138.45,163.7l.25-.41c.37.3.8.5,1.39.5.54,0,.8-.26.8-.56,0-.28-.12-.47-.99-.68-.84-.2-1.25-.52-1.25-1.07,0-.59.46-1.04,1.33-1.04.49,0,.97.22,1.29.47l-.26.4c-.3-.23-.66-.38-1.07-.38-.54,0-.74.25-.74.53,0,.32.28.45.94.61,1.06.26,1.32.56,1.32,1.13,0,.59-.51,1.09-1.42,1.09-.63,0-1.19-.26-1.57-.57Z" style="fill: #231f20;"/>
    <path d="M142.44,162.8v-2.27h.55v2.19c0,.69.21,1.02.74,1.02.37,0,.64-.2.99-.67v-2.53h.55v3.66h-.45l-.05-.64h-.03c-.32.43-.7.73-1.19.73-.76,0-1.11-.51-1.11-1.47Z" style="fill: #231f20;"/>
    <path d="M146.42,163.23c0-.82.67-1.22,2.32-1.37-.02-.5-.23-.92-.85-.92-.41,0-.82.23-1.12.44l-.22-.42c.33-.24.87-.53,1.43-.53.87,0,1.3.59,1.3,1.5v2.24h-.45l-.05-.5h-.02c-.35.32-.81.59-1.26.59-.6,0-1.09-.38-1.09-1.04ZM148.74,163.22v-.95c-1.37.12-1.78.43-1.78.91,0,.41.33.58.7.58s.72-.2,1.09-.54Z" style="fill: #231f20;"/>
    <path d="M151.46,162.95v-3.62h-1.13v-.5h1.68v4.17c0,.53.25.75.63.75.18,0,.38-.05.6-.17l.14.47c-.3.14-.51.22-.86.22-.69,0-1.06-.45-1.06-1.32Z" style="fill: #231f20;"/>
    <path d="M159.82,161.03h-1.48v-.5h2.03v3.66h-.55v-3.15ZM159.6,159.28c0-.29.18-.48.44-.48s.43.2.43.48-.18.48-.43.48-.44-.19-.44-.48Z" style="fill: #231f20;"/>
    <path d="M162.09,162.36c0-1.19.69-1.93,1.45-1.93.38,0,.68.17.96.47h.01l-.03-.67v-1.41h.55v5.35h-.45l-.05-.48h-.02c-.26.31-.64.57-1.05.57-.83,0-1.38-.69-1.38-1.91ZM164.49,163.2v-1.82c-.29-.31-.56-.42-.84-.42-.55,0-1,.56-1,1.39s.36,1.39.94,1.39c.32,0,.61-.18.9-.54Z" style="fill: #231f20;"/>
    <path d="M166.1,162.34c0-1.19.78-1.91,1.63-1.91.92,0,1.46.68,1.46,1.71,0,.14-.01.28-.03.38h-2.7v-.48h2.38l-.14.17c0-.87-.38-1.29-.96-1.29s-1.11.51-1.11,1.42.54,1.43,1.25,1.43c.38,0,.69-.14.97-.35l.2.41c-.32.24-.73.44-1.24.44-.96,0-1.73-.71-1.73-1.93Z" style="fill: #231f20;"/>
    <path d="M170.22,160.52h.45l.05.62h.03c.34-.4.7-.71,1.2-.71.76,0,1.11.51,1.11,1.47v2.27h-.55v-2.19c0-.69-.21-1.02-.73-1.02-.38,0-.64.22-1.01.65v2.55h-.55v-3.66Z" style="fill: #231f20;"/>
    <path d="M174.91,162.76v-1.73h-.91v-.47l.93-.04.07-1.17h.45v1.17h1.57v.5h-1.57v1.74c0,.65.19.99.81.99.3,0,.53-.07.76-.17l.12.46c-.29.12-.6.22-1,.22-.93,0-1.24-.61-1.24-1.51Z" style="fill: #231f20;"/>
    <path d="M179.58,161.03h-1.48v-.5h2.03v3.66h-.55v-3.15ZM179.36,159.28c0-.29.18-.48.44-.48s.43.2.43.48-.18.48-.43.48-.44-.19-.44-.48Z" style="fill: #231f20;"/>
    <path d="M182.82,162.76v-1.73h-.91v-.47l.93-.04.07-1.17h.45v1.17h1.57v.5h-1.57v1.74c0,.65.19.99.81.99.3,0,.53-.07.76-.17l.12.46c-.29.12-.6.22-1,.22-.93,0-1.24-.61-1.24-1.51Z" style="fill: #231f20;"/>
    <path d="M185.85,165.68l.11-.5c.09.03.19.05.29.05.45,0,.72-.32.87-.77l.09-.27-1.49-3.66h.55l.78,2.02c.12.32.26.71.39,1.06h.03c.11-.35.24-.73.34-1.06l.69-2.02h.53l-1.42,3.96c-.24.72-.63,1.27-1.36,1.27-.15,0-.31-.03-.42-.08Z" style="fill: #231f20;"/>
    <path d="M193.85,163.23c0-.82.67-1.22,2.32-1.37-.02-.5-.23-.92-.85-.92-.41,0-.82.23-1.12.44l-.22-.42c.33-.24.87-.53,1.43-.53.87,0,1.3.59,1.3,1.5v2.24h-.45l-.05-.5h-.02c-.35.32-.81.59-1.26.59-.6,0-1.09-.38-1.09-1.04ZM196.17,163.22v-.95c-1.37.12-1.78.43-1.78.91,0,.41.33.58.7.58s.72-.2,1.09-.54Z" style="fill: #231f20;"/>
    <path d="M197.88,160.52h.45l.05.62h.03c.34-.4.7-.71,1.2-.71.76,0,1.11.51,1.11,1.47v2.27h-.55v-2.19c0-.69-.21-1.02-.73-1.02-.38,0-.64.22-1.01.65v2.55h-.55v-3.66Z" style="fill: #231f20;"/>
    <path d="M201.62,162.36c0-1.19.69-1.93,1.45-1.93.38,0,.68.17.96.47h.01l-.03-.67v-1.41h.55v5.35h-.45l-.05-.48h-.02c-.26.31-.64.57-1.05.57-.83,0-1.38-.69-1.38-1.91ZM204.02,163.2v-1.82c-.29-.31-.56-.42-.84-.42-.55,0-1,.56-1,1.39s.36,1.39.94,1.39c.32,0,.61-.18.9-.54Z" style="fill: #231f20;"/>
    <path d="M210.08,160.52h.45l.05.86h.01c.34-.59.84-.95,1.43-.95.24,0,.44.04.63.15l-.12.53c-.23-.08-.34-.12-.59-.12-.48,0-.93.28-1.32,1.05v2.14h-.55v-3.66Z" style="fill: #231f20;"/>
    <path d="M213.53,162.34c0-1.19.78-1.91,1.63-1.91.92,0,1.46.68,1.46,1.71,0,.14-.01.28-.03.38h-2.7v-.48h2.38l-.14.17c0-.87-.38-1.29-.96-1.29s-1.11.51-1.11,1.42.54,1.43,1.25,1.43c.38,0,.69-.14.97-.35l.2.41c-.32.24-.73.44-1.24.44-.96,0-1.73-.71-1.73-1.93Z" style="fill: #231f20;"/>
    <path d="M217.5,163.7l.25-.41c.37.3.8.5,1.39.5.54,0,.8-.26.8-.56,0-.28-.12-.47-.99-.68-.84-.2-1.25-.52-1.25-1.07,0-.59.46-1.04,1.33-1.04.49,0,.97.22,1.29.47l-.26.4c-.3-.23-.66-.38-1.07-.38-.54,0-.74.25-.74.53,0,.32.28.45.94.61,1.06.26,1.32.56,1.32,1.13,0,.59-.51,1.09-1.42,1.09-.63,0-1.19-.26-1.57-.57Z" style="fill: #231f20;"/>
    <path d="M221.6,160.52h.45l.05.47h.02c.3-.32.72-.56,1.11-.56.86,0,1.32.73,1.32,1.86,0,1.24-.69,1.97-1.46,1.97-.3,0-.67-.17-.96-.47h-.01l.03.69v1.23h-.55v-5.2ZM223.98,162.3c0-.8-.26-1.34-.9-1.34-.28,0-.61.17-.94.54v1.82c.3.31.63.42.85.42.57,0,.99-.54.99-1.44Z" style="fill: #231f20;"/>
    <path d="M225.33,162.36c0-1.23.74-1.93,1.58-1.93s1.58.7,1.58,1.93-.74,1.91-1.58,1.91-1.58-.7-1.58-1.91ZM227.93,162.36c0-.84-.41-1.41-1.02-1.41s-1.02.56-1.02,1.41.41,1.39,1.02,1.39,1.02-.56,1.02-1.39Z" style="fill: #231f20;"/>
    <path d="M229.5,160.52h.45l.05.62h.03c.34-.4.7-.71,1.2-.71.76,0,1.11.51,1.11,1.47v2.27h-.55v-2.19c0-.69-.21-1.02-.73-1.02-.38,0-.64.22-1.01.65v2.55h-.55v-3.66Z" style="fill: #231f20;"/>
    <path d="M233.31,163.7l.25-.41c.37.3.8.5,1.39.5.54,0,.8-.26.8-.56,0-.28-.12-.47-.99-.68-.84-.2-1.25-.52-1.25-1.07,0-.59.46-1.04,1.33-1.04.49,0,.97.22,1.29.47l-.26.4c-.3-.23-.66-.38-1.07-.38-.54,0-.74.25-.74.53,0,.32.28.45.94.61,1.06.26,1.32.56,1.32,1.13,0,.59-.51,1.09-1.42,1.09-.63,0-1.19-.26-1.57-.57Z" style="fill: #231f20;"/>
    <path d="M238.87,161.03h-1.48v-.5h2.03v3.66h-.55v-3.15ZM238.65,159.28c0-.29.18-.48.44-.48s.43.2.43.48-.18.48-.43.48-.44-.19-.44-.48Z" style="fill: #231f20;"/>
    <path d="M241.08,160.52h.56l.74,2.07c.13.37.24.73.36,1.08h.03c.11-.35.22-.71.35-1.08l.74-2.07h.53l-1.33,3.66h-.61l-1.35-3.66Z" style="fill: #231f20;"/>
    <path d="M245.15,162.34c0-1.19.78-1.91,1.63-1.91.92,0,1.46.68,1.46,1.71,0,.14-.01.28-.03.38h-2.7v-.48h2.38l-.14.17c0-.87-.38-1.29-.96-1.29s-1.11.51-1.11,1.42.54,1.43,1.25,1.43c.38,0,.69-.14.97-.35l.2.41c-.32.24-.73.44-1.24.44-.96,0-1.73-.71-1.73-1.93Z" style="fill: #231f20;"/>
    <path d="M131.2,172.8h-.02l-.05.41h-.43v-5.35h.55v1.46l-.03.71h.02c.29-.34.7-.56,1.07-.56.86,0,1.33.73,1.33,1.86,0,1.25-.69,1.98-1.44,1.98-.31,0-.7-.19-.99-.5ZM133.07,171.33c0-.8-.26-1.34-.9-1.34-.28,0-.61.17-.94.54v1.82c.3.31.63.42.86.42.55,0,.97-.54.97-1.44Z" style="fill: #231f20;"/>
    <path d="M134.48,171.37c0-1.19.78-1.91,1.63-1.91.92,0,1.46.68,1.46,1.71,0,.14-.01.28-.03.38h-2.7v-.48h2.38l-.14.17c0-.87-.38-1.29-.96-1.29s-1.11.51-1.11,1.42.54,1.43,1.25,1.43c.38,0,.69-.14.97-.35l.2.41c-.32.24-.73.44-1.24.44-.96,0-1.73-.71-1.73-1.93Z" style="fill: #231f20;"/>
    <path d="M138.6,167.86h.55v1.46l-.03.86h.02c.32-.41.7-.71,1.19-.71.76,0,1.11.51,1.11,1.47v2.27h-.55v-2.19c0-.69-.21-1.02-.73-1.02-.38,0-.64.22-1.01.65v2.55h-.55v-5.35Z" style="fill: #231f20;"/>
    <path d="M142.46,172.26c0-.82.67-1.22,2.32-1.37-.02-.5-.23-.92-.85-.92-.41,0-.82.23-1.12.44l-.22-.42c.33-.24.87-.53,1.43-.53.87,0,1.3.59,1.3,1.5v2.24h-.45l-.05-.5h-.02c-.35.32-.81.59-1.26.59-.6,0-1.09-.38-1.09-1.04ZM144.79,172.25v-.95c-1.37.12-1.78.43-1.78.91,0,.41.33.58.7.58s.72-.2,1.09-.54Z" style="fill: #231f20;"/>
    <path d="M146.22,169.55h.56l.74,2.07c.13.37.24.73.36,1.08h.03c.11-.35.22-.71.35-1.08l.74-2.07h.53l-1.33,3.66h-.61l-1.35-3.66Z" style="fill: #231f20;"/>
    <path d="M151.92,170.06h-1.48v-.5h2.03v3.66h-.55v-3.15ZM151.7,168.31c0-.29.18-.48.44-.48s.43.2.43.48-.18.48-.43.48-.44-.19-.44-.48Z" style="fill: #231f20;"/>
    <path d="M154.19,171.39c0-1.23.74-1.93,1.58-1.93s1.58.7,1.58,1.93-.74,1.91-1.58,1.91-1.58-.7-1.58-1.91ZM156.79,171.39c0-.84-.41-1.41-1.02-1.41s-1.02.56-1.02,1.41.41,1.39,1.02,1.39,1.02-.56,1.02-1.39Z" style="fill: #231f20;"/>
    <path d="M158.7,169.55h.45l.05.86h.01c.34-.59.84-.95,1.43-.95.24,0,.44.04.63.15l-.12.53c-.23-.08-.34-.12-.59-.12-.48,0-.93.28-1.32,1.05v2.14h-.55v-3.66Z" style="fill: #231f20;"/>
  </g>
  <g>
    <path d="M117.8,280.03h1.05v-3.48h-1.05v-.48h2.63v.48h-1.05v3.48h1.05v.48h-2.63v-.48Z" style="fill: #231f20;"/>
    <path d="M121.64,277.22h.44l.04.56h.03c.33-.36.69-.64,1.18-.64.74,0,1.08.46,1.08,1.33v2.05h-.53v-1.97c0-.62-.21-.91-.71-.91-.37,0-.62.2-.98.59v2.3h-.53v-3.29Z" style="fill: #231f20;"/>
    <path d="M126.23,279.23v-1.56h-.89v-.42l.91-.03.07-1.06h.44v1.06h1.53v.45h-1.53v1.56c0,.59.19.89.79.89.29,0,.52-.06.74-.15l.12.41c-.28.11-.58.2-.98.2-.91,0-1.21-.55-1.21-1.36Z" style="fill: #231f20;"/>
    <path d="M129.19,278.86c0-1.07.76-1.72,1.59-1.72.9,0,1.43.62,1.43,1.54,0,.13-.01.25-.03.34h-2.64v-.43h2.32l-.13.16c0-.78-.37-1.17-.94-1.17s-1.08.46-1.08,1.28.53,1.29,1.22,1.29c.37,0,.67-.12.95-.31l.19.37c-.31.22-.71.39-1.21.39-.94,0-1.68-.64-1.68-1.73Z" style="fill: #231f20;"/>
    <path d="M133.54,277.22h.44l.05.78h.01c.33-.54.82-.86,1.39-.86.23,0,.42.03.62.14l-.12.48c-.22-.08-.33-.11-.58-.11-.47,0-.91.25-1.28.94v1.92h-.53v-3.29Z" style="fill: #231f20;"/>
    <path d="M136.98,279.66c0-.74.65-1.1,2.27-1.23-.02-.45-.22-.83-.83-.83-.4,0-.8.2-1.09.39l-.21-.38c.32-.22.85-.47,1.39-.47.85,0,1.27.54,1.27,1.35v2.02h-.44l-.04-.45h-.02c-.34.28-.79.53-1.23.53-.58,0-1.07-.35-1.07-.93ZM139.25,279.65v-.85c-1.34.11-1.74.39-1.74.82,0,.37.32.52.68.52s.7-.18,1.06-.49Z" style="fill: #231f20;"/>
    <path d="M140.84,278.87c0-1.1.8-1.73,1.74-1.73.51,0,.88.22,1.14.48l-.26.36c-.26-.23-.53-.37-.85-.37-.72,0-1.21.51-1.21,1.27s.49,1.25,1.2,1.25c.39,0,.71-.18.96-.41l.24.37c-.35.33-.78.51-1.24.51-.98,0-1.71-.63-1.71-1.72Z" style="fill: #231f20;"/>
    <path d="M145.5,279.23v-1.56h-.89v-.42l.91-.03.07-1.06h.44v1.06h1.53v.45h-1.53v1.56c0,.59.19.89.79.89.29,0,.52-.06.75-.15l.12.41c-.28.11-.58.2-.98.2-.91,0-1.21-.55-1.21-1.36Z" style="fill: #231f20;"/>
    <path d="M150.06,277.68h-1.45v-.45h1.98v3.29h-.53v-2.84ZM149.84,276.1c0-.26.18-.43.42-.43s.42.18.42.43-.18.43-.42.43-.42-.17-.42-.43Z" style="fill: #231f20;"/>
    <path d="M152.27,278.87c0-1.1.72-1.73,1.54-1.73s1.54.63,1.54,1.73-.72,1.72-1.54,1.72-1.54-.63-1.54-1.72ZM154.81,278.87c0-.76-.4-1.27-1-1.27s-.99.51-.99,1.27.4,1.25.99,1.25,1-.5,1-1.25Z" style="fill: #231f20;"/>
    <path d="M156.34,277.22h.44l.04.56h.03c.33-.36.69-.64,1.18-.64.74,0,1.08.46,1.08,1.33v2.05h-.53v-1.97c0-.62-.21-.91-.71-.91-.37,0-.62.2-.98.59v2.3h-.53v-3.29Z" style="fill: #231f20;"/>
    <path d="M163.97,279.66c0-.74.65-1.1,2.27-1.23-.02-.45-.22-.83-.83-.83-.4,0-.8.2-1.09.39l-.21-.38c.32-.22.85-.47,1.39-.47.85,0,1.27.54,1.27,1.35v2.02h-.44l-.04-.45h-.02c-.34.28-.79.53-1.23.53-.58,0-1.07-.35-1.07-.93ZM166.23,279.65v-.85c-1.34.11-1.74.39-1.74.82,0,.37.32.52.68.52s.7-.18,1.06-.49Z" style="fill: #231f20;"/>
    <path d="M167.91,277.22h.44l.04.56h.03c.33-.36.69-.64,1.18-.64.74,0,1.08.46,1.08,1.33v2.05h-.53v-1.97c0-.62-.2-.91-.71-.91-.37,0-.62.2-.98.59v2.3h-.53v-3.29Z" style="fill: #231f20;"/>
    <path d="M171.55,278.87c0-1.07.67-1.73,1.41-1.73.37,0,.66.16.94.42h.01l-.03-.6v-1.27h.53v4.82h-.44l-.04-.43h-.02c-.26.28-.63.51-1.02.51-.81,0-1.35-.62-1.35-1.72ZM173.89,279.63v-1.64c-.28-.28-.55-.38-.81-.38-.54,0-.98.5-.98,1.25s.35,1.25.92,1.25c.31,0,.6-.16.87-.49Z" style="fill: #231f20;"/>
    <path d="M179.26,278.87c0-1.07.67-1.73,1.41-1.73.37,0,.66.16.94.42h.01l-.03-.6v-1.27h.53v4.82h-.44l-.04-.43h-.02c-.26.28-.63.51-1.02.51-.81,0-1.35-.62-1.35-1.72ZM181.6,279.63v-1.64c-.28-.28-.55-.38-.81-.38-.54,0-.98.5-.98,1.25s.35,1.25.92,1.25c.31,0,.6-.16.87-.49Z" style="fill: #231f20;"/>
    <path d="M183.16,281.86l.11-.45c.08.03.19.05.28.05.44,0,.7-.29.85-.7l.09-.24-1.45-3.3h.54l.76,1.82c.12.29.26.64.38.95h.03c.11-.31.23-.66.33-.95l.67-1.82h.51l-1.38,3.56c-.23.65-.61,1.15-1.32,1.15-.15,0-.3-.03-.41-.07Z" style="fill: #231f20;"/>
    <path d="M187.18,277.22h.44l.04.56h.03c.33-.36.69-.64,1.18-.64.74,0,1.08.46,1.08,1.33v2.05h-.53v-1.97c0-.62-.21-.91-.71-.91-.37,0-.62.2-.98.59v2.3h-.53v-3.29Z" style="fill: #231f20;"/>
    <path d="M190.95,279.66c0-.74.65-1.1,2.27-1.23-.02-.45-.22-.83-.83-.83-.4,0-.8.2-1.09.39l-.21-.38c.32-.22.85-.47,1.39-.47.85,0,1.27.54,1.27,1.35v2.02h-.44l-.04-.45h-.02c-.34.28-.79.53-1.23.53-.58,0-1.07-.35-1.07-.93ZM193.22,279.65v-.85c-1.34.11-1.74.39-1.74.82,0,.37.32.52.68.52s.7-.18,1.06-.49Z" style="fill: #231f20;"/>
    <path d="M194.67,277.22h.42l.04.43h.01c.16-.3.35-.51.71-.51.31,0,.5.19.59.57.18-.35.37-.57.73-.57.44,0,.69.36.69,1.02v2.36h-.53v-2.32c0-.38-.1-.58-.33-.58-.22,0-.33.17-.5.51v2.38h-.49v-2.32c0-.38-.09-.58-.32-.58-.22,0-.36.17-.51.51v2.38h-.53v-3.29Z" style="fill: #231f20;"/>
    <path d="M200.17,277.68h-1.45v-.45h1.98v3.29h-.53v-2.84ZM199.96,276.1c0-.26.18-.43.42-.43s.42.18.42.43-.18.43-.42.43-.42-.17-.42-.43Z" style="fill: #231f20;"/>
    <path d="M202.52,278.87c0-1.1.8-1.73,1.74-1.73.51,0,.88.22,1.14.48l-.26.36c-.26-.23-.53-.37-.85-.37-.72,0-1.21.51-1.21,1.27s.49,1.25,1.2,1.25c.39,0,.71-.18.96-.41l.24.37c-.35.33-.78.51-1.24.51-.98,0-1.71-.63-1.71-1.72Z" style="fill: #231f20;"/>
    <path d="M210.23,278.87c0-1.1.8-1.73,1.74-1.73.51,0,.88.22,1.14.48l-.26.36c-.26-.23-.53-.37-.85-.37-.72,0-1.21.51-1.21,1.27s.49,1.25,1.2,1.25c.39,0,.71-.18.96-.41l.24.37c-.35.33-.78.51-1.24.51-.98,0-1.71-.63-1.71-1.72Z" style="fill: #231f20;"/>
    <path d="M213.96,278.87c0-1.1.72-1.73,1.54-1.73s1.54.63,1.54,1.73-.72,1.72-1.54,1.72-1.54-.63-1.54-1.72ZM216.49,278.87c0-.76-.4-1.27-1-1.27s-.99.51-.99,1.27.4,1.25.99,1.25,1-.5,1-1.25Z" style="fill: #231f20;"/>
    <path d="M218.02,277.22h.44l.04.56h.03c.33-.36.69-.64,1.18-.64.74,0,1.08.46,1.08,1.33v2.05h-.53v-1.97c0-.62-.21-.91-.71-.91-.37,0-.62.2-.98.59v2.3h-.53v-3.29Z" style="fill: #231f20;"/>
    <path d="M222.6,279.23v-1.56h-.89v-.42l.91-.03.07-1.06h.44v1.06h1.53v.45h-1.53v1.56c0,.59.19.89.79.89.29,0,.52-.06.75-.15l.12.41c-.28.11-.58.2-.98.2-.91,0-1.21-.55-1.21-1.36Z" style="fill: #231f20;"/>
    <path d="M225.57,278.86c0-1.07.76-1.72,1.59-1.72.9,0,1.43.62,1.43,1.54,0,.13-.01.25-.03.34h-2.64v-.43h2.32l-.13.16c0-.78-.37-1.17-.94-1.17s-1.08.46-1.08,1.28.53,1.29,1.22,1.29c.37,0,.67-.12.95-.31l.19.37c-.31.22-.71.39-1.21.39-.94,0-1.68-.64-1.68-1.73Z" style="fill: #231f20;"/>
    <path d="M229.59,277.22h.44l.04.56h.03c.33-.36.69-.64,1.18-.64.74,0,1.08.46,1.08,1.33v2.05h-.53v-1.97c0-.62-.2-.91-.71-.91-.37,0-.62.2-.98.59v2.3h-.53v-3.29Z" style="fill: #231f20;"/>
    <path d="M234.17,279.23v-1.56h-.89v-.42l.91-.03.07-1.06h.44v1.06h1.53v.45h-1.53v1.56c0,.59.19.89.79.89.29,0,.52-.06.74-.15l.12.41c-.28.11-.58.2-.98.2-.91,0-1.21-.55-1.21-1.36Z" style="fill: #231f20;"/>
  </g>
  <g>
    <g>
      <path d="M25.6,127.44l.55-.64c.55.54,1.3.89,2.12.89.99,0,1.56-.47,1.56-1.14,0-.77-.56-.99-1.29-1.3l-1.05-.46c-.72-.29-1.55-.79-1.55-1.86s.99-1.92,2.37-1.92c.9,0,1.7.36,2.23.89l-.48.59c-.47-.42-1.02-.67-1.77-.67-.84,0-1.4.4-1.4,1.05,0,.69.67.95,1.29,1.19l1.01.45c.89.35,1.6.86,1.6,1.93,0,1.15-.97,2.06-2.56,2.06-1.06,0-1.97-.42-2.62-1.07Z" style="fill: #231f20;"/>
      <path d="M33.75,126.3v-2.53h-1.52v-.68l1.55-.06.12-1.72h.76v1.72h2.62v.74h-2.62v2.55c0,.96.32,1.45,1.36,1.45.5,0,.89-.1,1.28-.24l.2.67c-.49.18-1,.32-1.67.32-1.57,0-2.07-.89-2.07-2.21Z" style="fill: #231f20;"/>
      <path d="M39.69,123.02h.76l.09,1.27h.02c.56-.87,1.4-1.4,2.39-1.4.4,0,.73.06,1.06.22l-.21.78c-.37-.12-.57-.18-.99-.18-.8,0-1.56.41-2.2,1.53v3.13h-.92v-5.36Z" style="fill: #231f20;"/>
      <path d="M45.56,126.35v-3.33h.91v3.21c0,1,.35,1.49,1.23,1.49.62,0,1.07-.29,1.66-.98v-3.71h.91v5.36h-.76l-.08-.94h-.04c-.54.63-1.17,1.07-1.99,1.07-1.27,0-1.85-.75-1.85-2.16Z" style="fill: #231f20;"/>
      <path d="M52.21,125.71c0-1.8,1.37-2.82,2.99-2.82.87,0,1.51.35,1.95.78l-.45.58c-.44-.37-.9-.61-1.47-.61-1.23,0-2.08.83-2.08,2.06s.84,2.04,2.06,2.04c.66,0,1.21-.3,1.65-.67l.41.59c-.59.53-1.33.84-2.13.84-1.67,0-2.93-1.02-2.93-2.8Z" style="fill: #231f20;"/>
      <path d="M60.21,126.3v-2.53h-1.52v-.68l1.55-.06.12-1.72h.76v1.72h2.62v.74h-2.62v2.55c0,.96.32,1.45,1.36,1.45.5,0,.89-.1,1.28-.24l.2.67c-.49.18-1,.32-1.67.32-1.57,0-2.07-.89-2.07-2.21Z" style="fill: #231f20;"/>
      <path d="M65.4,126.35v-3.33h.91v3.21c0,1,.35,1.49,1.23,1.49.62,0,1.07-.29,1.66-.98v-3.71h.91v5.36h-.76l-.08-.94h-.04c-.54.63-1.17,1.07-1.99,1.07-1.27,0-1.85-.75-1.85-2.16Z" style="fill: #231f20;"/>
      <path d="M72.77,123.02h.76l.09,1.27h.02c.56-.87,1.4-1.4,2.39-1.4.4,0,.73.06,1.06.22l-.21.78c-.37-.12-.57-.18-.99-.18-.8,0-1.56.41-2.2,1.53v3.13h-.92v-5.36Z" style="fill: #231f20;"/>
      <path d="M78.53,125.69c0-1.74,1.3-2.8,2.73-2.8,1.54,0,2.45,1,2.45,2.51,0,.21-.02.41-.04.55h-4.53v-.71h3.99l-.23.25c0-1.27-.63-1.89-1.61-1.89s-1.85.75-1.85,2.08.9,2.09,2.09,2.09c.64,0,1.15-.2,1.63-.51l.33.6c-.53.35-1.21.64-2.07.64-1.61,0-2.89-1.04-2.89-2.82Z" style="fill: #231f20;"/>
    </g>
    <g>
      <path d="M0,143.11c0-1.57.82-2.54,1.95-2.54.52,0,.94.28,1.19.6l-.32.4c-.23-.27-.51-.44-.88-.44-.83,0-1.37.75-1.37,1.97s.54,2,1.37,2c.4,0,.7-.19.97-.54l.32.38c-.34.45-.77.71-1.35.71-1.07,0-1.9-.94-1.9-2.54Z" style="fill: #231f20;"/>
      <path d="M3.95,143.76c0-1.22.74-1.91,1.59-1.91s1.59.69,1.59,1.91-.74,1.89-1.59,1.89-1.59-.69-1.59-1.89ZM6.57,143.76c0-.84-.41-1.4-1.03-1.4s-1.03.56-1.03,1.4.41,1.38,1.03,1.38,1.03-.55,1.03-1.38Z" style="fill: #231f20;"/>
      <path d="M8.15,141.94h.45l.05.61h.03c.34-.4.71-.7,1.21-.7.76,0,1.11.51,1.11,1.46v2.25h-.55v-2.17c0-.69-.21-1.01-.74-1.01-.38,0-.64.22-1.01.65v2.53h-.55v-3.63Z" style="fill: #231f20;"/>
      <path d="M12.88,144.15v-1.72h-.92v-.46l.94-.04.07-1.16h.46v1.16h1.58v.5h-1.58v1.72c0,.65.19.98.82.98.3,0,.54-.07.77-.16l.12.46c-.29.12-.6.22-1.01.22-.94,0-1.25-.6-1.25-1.5Z" style="fill: #231f20;"/>
      <path d="M15.94,143.74c0-1.18.78-1.89,1.64-1.89.93,0,1.47.68,1.47,1.7,0,.14-.01.28-.03.37h-2.72v-.48h2.4l-.14.17c0-.86-.38-1.28-.97-1.28s-1.11.51-1.11,1.41.54,1.42,1.26,1.42c.38,0,.69-.13.98-.34l.2.4c-.32.24-.73.43-1.25.43-.97,0-1.74-.7-1.74-1.91Z" style="fill: #231f20;"/>
      <path d="M20.09,141.94h.45l.05.61h.03c.34-.4.71-.7,1.21-.7.76,0,1.11.51,1.11,1.46v2.25h-.55v-2.17c0-.69-.21-1.01-.74-1.01-.38,0-.64.22-1.02.65v2.53h-.55v-3.63Z" style="fill: #231f20;"/>
      <path d="M24.82,144.15v-1.72h-.92v-.46l.94-.04.07-1.16h.46v1.16h1.58v.5h-1.58v1.72c0,.65.19.98.82.98.3,0,.54-.07.77-.16l.12.46c-.29.12-.6.22-1.01.22-.94,0-1.25-.6-1.25-1.5Z" style="fill: #231f20;"/>
      <path d="M31.95,144.62c0-.81.68-1.21,2.34-1.36-.02-.49-.23-.91-.86-.91-.42,0-.83.22-1.13.43l-.22-.42c.33-.24.88-.52,1.44-.52.88,0,1.31.59,1.31,1.49v2.22h-.46l-.05-.49h-.02c-.35.31-.82.58-1.27.58-.6,0-1.1-.38-1.1-1.03ZM34.29,144.61v-.94c-1.38.12-1.8.43-1.8.9,0,.41.33.57.7.57s.72-.19,1.09-.54Z" style="fill: #231f20;"/>
      <path d="M36.01,141.94h.45l.05.61h.03c.34-.4.71-.7,1.21-.7.76,0,1.11.51,1.11,1.46v2.25h-.55v-2.17c0-.69-.21-1.01-.74-1.01-.38,0-.64.22-1.02.65v2.53h-.55v-3.63Z" style="fill: #231f20;"/>
      <path d="M39.78,143.76c0-1.18.7-1.91,1.46-1.91.38,0,.68.17.97.46h.01l-.03-.66v-1.39h.55v5.31h-.45l-.05-.48h-.02c-.27.31-.65.57-1.05.57-.84,0-1.39-.69-1.39-1.89ZM42.19,144.59v-1.81c-.29-.31-.56-.42-.84-.42-.56,0-1.01.55-1.01,1.38s.36,1.38.95,1.38c.32,0,.62-.18.9-.54Z" style="fill: #231f20;"/>
      <path d="M48.97,144.35v-3.6h-1.14v-.5h1.69v4.14c0,.52.25.75.64.75.19,0,.38-.05.6-.16l.14.46c-.3.14-.51.22-.86.22-.69,0-1.07-.45-1.07-1.31Z" style="fill: #231f20;"/>
      <path d="M51.85,144.62c0-.81.68-1.21,2.34-1.36-.02-.49-.23-.91-.86-.91-.42,0-.83.22-1.13.43l-.22-.42c.33-.24.88-.52,1.44-.52.88,0,1.31.59,1.31,1.49v2.22h-.46l-.05-.49h-.02c-.35.31-.82.58-1.27.58-.6,0-1.1-.38-1.1-1.03ZM54.19,144.61v-.94c-1.38.12-1.8.43-1.8.9,0,.41.33.57.7.57s.72-.19,1.09-.54Z" style="fill: #231f20;"/>
      <path d="M55.74,147.05l.11-.49c.09.03.19.05.29.05.45,0,.72-.32.88-.77l.09-.27-1.5-3.63h.56l.78,2c.13.32.27.7.4,1.05h.03c.11-.34.24-.72.34-1.05l.7-2h.53l-1.43,3.92c-.24.72-.63,1.26-1.37,1.26-.15,0-.31-.03-.42-.07Z" style="fill: #231f20;"/>
      <path d="M59.68,143.76c0-1.22.74-1.91,1.59-1.91s1.59.69,1.59,1.91-.74,1.89-1.59,1.89-1.59-.69-1.59-1.89ZM62.3,143.76c0-.84-.41-1.4-1.03-1.4s-1.03.56-1.03,1.4.41,1.38,1.03,1.38,1.03-.55,1.03-1.38Z" style="fill: #231f20;"/>
      <path d="M63.77,144.19v-2.25h.55v2.17c0,.68.21,1.01.74,1.01.37,0,.64-.19,1-.66v-2.51h.55v3.63h-.46l-.05-.63h-.03c-.33.43-.7.72-1.2.72-.76,0-1.11-.51-1.11-1.46Z" style="fill: #231f20;"/>
      <path d="M68.61,144.15v-1.72h-.92v-.46l.94-.04.07-1.16h.46v1.16h1.58v.5h-1.58v1.72c0,.65.19.98.82.98.3,0,.54-.07.77-.16l.12.46c-.29.12-.6.22-1.01.22-.94,0-1.25-.6-1.25-1.5Z" style="fill: #231f20;"/>
      <path d="M76.57,144.15v-1.72h-.92v-.46l.94-.04.07-1.16h.46v1.16h1.58v.5h-1.58v1.72c0,.65.19.98.82.98.3,0,.54-.07.77-.16l.12.46c-.29.12-.6.22-1.01.22-.94,0-1.25-.6-1.25-1.5Z" style="fill: #231f20;"/>
      <path d="M80.15,141.94h.46l.05.86h.01c.34-.59.84-.95,1.44-.95.24,0,.44.04.64.15l-.13.53c-.23-.08-.35-.12-.6-.12-.48,0-.94.28-1.33,1.04v2.12h-.55v-3.63Z" style="fill: #231f20;"/>
      <path d="M83.7,144.62c0-.81.68-1.21,2.34-1.36-.02-.49-.23-.91-.86-.91-.42,0-.83.22-1.13.43l-.22-.42c.33-.24.88-.52,1.44-.52.88,0,1.31.59,1.31,1.49v2.22h-.46l-.05-.49h-.02c-.35.31-.82.58-1.27.58-.6,0-1.1-.38-1.1-1.03ZM86.04,144.61v-.94c-1.38.12-1.8.43-1.8.9,0,.41.33.57.7.57s.72-.19,1.09-.54Z" style="fill: #231f20;"/>
      <path d="M87.76,141.94h.45l.05.61h.03c.34-.4.71-.7,1.21-.7.76,0,1.11.51,1.11,1.46v2.25h-.55v-2.17c0-.69-.21-1.01-.74-1.01-.38,0-.64.22-1.01.65v2.53h-.55v-3.63Z" style="fill: #231f20;"/>
      <path d="M91.6,145.08l.25-.41c.37.3.81.49,1.4.49.54,0,.81-.25.81-.56,0-.28-.13-.47-1-.67-.84-.19-1.26-.52-1.26-1.06,0-.58.46-1.03,1.34-1.03.49,0,.98.22,1.3.46l-.27.4c-.3-.23-.67-.38-1.08-.38-.54,0-.74.25-.74.52,0,.31.28.45.94.6,1.07.26,1.33.56,1.33,1.12,0,.59-.51,1.08-1.43,1.08-.63,0-1.19-.26-1.58-.57Z" style="fill: #231f20;"/>
      <path d="M96.74,144.35v-3.6h-1.14v-.5h1.69v4.14c0,.52.25.75.64.75.19,0,.38-.05.6-.16l.14.46c-.3.14-.51.22-.86.22-.69,0-1.07-.45-1.07-1.31Z" style="fill: #231f20;"/>
      <path d="M99.62,144.62c0-.81.68-1.21,2.34-1.36-.02-.49-.23-.91-.86-.91-.42,0-.83.22-1.13.43l-.22-.42c.33-.24.88-.52,1.44-.52.88,0,1.31.59,1.31,1.49v2.22h-.46l-.05-.49h-.02c-.35.31-.82.58-1.27.58-.6,0-1.1-.38-1.1-1.03ZM101.96,144.61v-.94c-1.38.12-1.8.43-1.8.9,0,.41.33.57.7.57s.72-.19,1.09-.54Z" style="fill: #231f20;"/>
      <path d="M104.44,144.15v-1.72h-.92v-.46l.94-.04.07-1.16h.46v1.16h1.58v.5h-1.58v1.72c0,.65.19.98.82.98.3,0,.54-.07.77-.16l.12.46c-.29.12-.6.22-1.01.22-.94,0-1.25-.6-1.25-1.5Z" style="fill: #231f20;"/>
      <path d="M107.5,143.74c0-1.18.78-1.89,1.64-1.89.93,0,1.47.68,1.47,1.7,0,.14-.01.28-.03.37h-2.72v-.48h2.4l-.14.17c0-.86-.38-1.28-.97-1.28s-1.11.51-1.11,1.41.54,1.42,1.26,1.42c.38,0,.69-.13.98-.34l.2.4c-.32.24-.73.43-1.25.43-.97,0-1.74-.7-1.74-1.91Z" style="fill: #231f20;"/>
      <path d="M111.43,143.76c0-1.18.7-1.91,1.46-1.91.38,0,.68.17.97.46h.01l-.03-.66v-1.39h.55v5.31h-.45l-.05-.48h-.02c-.27.31-.65.57-1.05.57-.84,0-1.39-.69-1.39-1.89ZM113.84,144.59v-1.81c-.29-.31-.56-.42-.84-.42-.56,0-1.01.55-1.01,1.38s.36,1.38.95,1.38c.32,0,.62-.18.9-.54Z" style="fill: #231f20;"/>
      <path d="M1.66,151.39H.17v-.5h2.04v3.63h-.55v-3.13ZM1.44,149.66c0-.28.19-.48.44-.48s.44.19.44.48-.19.48-.44.48-.44-.19-.44-.48Z" style="fill: #231f20;"/>
      <path d="M4.17,150.89h.45l.05.61h.03c.34-.4.71-.7,1.21-.7.76,0,1.11.51,1.11,1.46v2.25h-.55v-2.17c0-.69-.21-1.01-.74-1.01-.38,0-.64.22-1.02.65v2.53h-.55v-3.63Z" style="fill: #231f20;"/>
      <path d="M8.9,153.11v-1.72h-.92v-.46l.94-.04.07-1.16h.46v1.16h1.58v.5h-1.58v1.72c0,.65.19.98.82.98.3,0,.54-.07.77-.16l.12.46c-.29.12-.6.22-1.01.22-.94,0-1.25-.6-1.25-1.5Z" style="fill: #231f20;"/>
      <path d="M11.91,152.71c0-1.22.74-1.91,1.59-1.91s1.59.69,1.59,1.91-.74,1.89-1.59,1.89-1.59-.69-1.59-1.89ZM14.53,152.71c0-.84-.41-1.4-1.03-1.4s-1.03.56-1.03,1.4.41,1.38,1.03,1.38,1.03-.55,1.03-1.38Z" style="fill: #231f20;"/>
      <path d="M19.94,154.04l.25-.41c.37.3.81.49,1.4.49.54,0,.81-.25.81-.56,0-.28-.13-.47-1-.67-.84-.19-1.26-.52-1.26-1.06,0-.58.46-1.03,1.34-1.03.49,0,.98.22,1.3.46l-.27.4c-.3-.23-.67-.38-1.08-.38-.54,0-.74.25-.74.52,0,.31.28.45.94.6,1.07.26,1.33.56,1.33,1.12,0,.59-.51,1.08-1.43,1.08-.63,0-1.19-.26-1.58-.57Z" style="fill: #231f20;"/>
      <path d="M24.82,153.11v-1.72h-.92v-.46l.94-.04.07-1.16h.46v1.16h1.58v.5h-1.58v1.72c0,.65.19.98.82.98.3,0,.54-.07.77-.16l.12.46c-.29.12-.6.22-1.01.22-.94,0-1.25-.6-1.25-1.5Z" style="fill: #231f20;"/>
      <path d="M28.4,150.89h.46l.05.86h.01c.34-.59.84-.95,1.44-.95.24,0,.44.04.64.15l-.13.53c-.23-.08-.35-.12-.6-.12-.48,0-.94.28-1.33,1.04v2.12h-.55v-3.63Z" style="fill: #231f20;"/>
      <path d="M31.93,153.15v-2.25h.55v2.17c0,.68.21,1.01.74,1.01.37,0,.64-.19,1-.66v-2.51h.55v3.63h-.46l-.05-.63h-.03c-.33.43-.7.72-1.2.72-.76,0-1.11-.51-1.11-1.46Z" style="fill: #231f20;"/>
      <path d="M35.93,152.71c0-1.22.82-1.91,1.8-1.91.52,0,.91.24,1.17.53l-.27.4c-.27-.25-.54-.41-.88-.41-.74,0-1.25.56-1.25,1.4s.5,1.38,1.24,1.38c.4,0,.73-.2.99-.46l.25.4c-.36.36-.8.57-1.28.57-1.01,0-1.76-.69-1.76-1.89Z" style="fill: #231f20;"/>
      <path d="M40.74,153.11v-1.72h-.92v-.46l.94-.04.07-1.16h.46v1.16h1.58v.5h-1.58v1.72c0,.65.19.98.82.98.3,0,.54-.07.77-.16l.12.46c-.29.12-.6.22-1.01.22-.94,0-1.25-.6-1.25-1.5Z" style="fill: #231f20;"/>
      <path d="M43.87,153.15v-2.25h.55v2.17c0,.68.21,1.01.74,1.01.37,0,.64-.19,1-.66v-2.51h.55v3.63h-.46l-.05-.63h-.03c-.33.43-.7.72-1.2.72-.76,0-1.11-.51-1.11-1.46Z" style="fill: #231f20;"/>
      <path d="M48.3,150.89h.46l.05.86h.01c.34-.59.84-.95,1.44-.95.24,0,.44.04.64.15l-.13.53c-.23-.08-.35-.12-.6-.12-.48,0-.94.28-1.33,1.04v2.12h-.55v-3.63Z" style="fill: #231f20;"/>
      <path d="M51.77,152.7c0-1.18.78-1.89,1.64-1.89.93,0,1.47.68,1.47,1.7,0,.14-.01.28-.03.37h-2.72v-.48h2.4l-.14.17c0-.86-.38-1.28-.97-1.28s-1.11.51-1.11,1.41.54,1.42,1.26,1.42c.38,0,.69-.13.98-.34l.2.4c-.32.24-.73.43-1.25.43-.97,0-1.74-.7-1.74-1.91Z" style="fill: #231f20;"/>
    </g>
    <g>
      <path d="M40.04,101.17h1.94v4.28h2.61v-4.28h1.94v10.83h-1.94v-4.87h-2.61v4.87h-1.94v-10.83Z" style="fill: #231f20;"/>
      <path d="M49.9,102.87h-2.31v-1.7h6.57v1.7h-2.31v9.13h-1.94v-9.13Z" style="fill: #231f20;"/>
      <path d="M61.85,107.97c0-1.85.03-3.96.06-5.19h-.04c-.37,2.06-.97,5.71-1.68,9.22h-1.75c-.53-3.27-1.15-7.15-1.5-9.25h-.06c.06,1.26.11,3.53.11,5.4v3.84h-1.77v-10.83h2.9c.57,2.99,1.06,6.02,1.28,7.6h.02c.22-1.47.9-4.73,1.46-7.6h2.83v10.83h-1.86v-4.03Z" style="fill: #231f20;"/>
      <path d="M65.57,101.17h1.94v9.17h3.71l-.19,1.66h-5.46v-10.83Z" style="fill: #231f20;"/>
    </g>
  </g>
  <g>
    <path d="M182.43,128.81c-.05.55-.26,3.34-3.26,3.34s-3.43-2.71-3.43-5.62c0-3.51,1.03-5.57,3.55-5.57,2.87,0,3.09,2.46,3.14,3.33h-1.92c-.03-.37-.06-1.68-1.25-1.68s-1.51,1.49-1.51,3.97c0,2.04.2,3.96,1.46,3.96,1.16,0,1.25-1.31,1.3-1.72h1.93Z" style="fill: #231f20;"/>
    <path d="M185.18,128.93c.09.9.46,1.69,1.45,1.69s1.31-.6,1.31-1.4c0-.89-.44-1.41-1.81-2.06-1.85-.88-2.58-1.66-2.58-3.27,0-1.74,1.12-2.92,3.07-2.92,2.44,0,3.04,1.65,3.07,3.06h-1.9c-.06-.62-.22-1.53-1.2-1.53-.77,0-1.11.5-1.11,1.23,0,.78.35,1.14,1.62,1.73,1.94.9,2.82,1.77,2.82,3.58,0,1.7-1.05,3.11-3.34,3.11-2.49,0-3.25-1.59-3.32-3.22h1.93Z" style="fill: #231f20;"/>
    <path d="M192.75,128.93c.09.9.46,1.69,1.45,1.69s1.31-.6,1.31-1.4c0-.89-.44-1.41-1.81-2.06-1.85-.88-2.58-1.66-2.58-3.27,0-1.74,1.12-2.92,3.07-2.92,2.44,0,3.04,1.65,3.07,3.06h-1.9c-.06-.62-.22-1.53-1.2-1.53-.77,0-1.11.5-1.11,1.23,0,.78.35,1.14,1.62,1.73,1.94.9,2.82,1.77,2.82,3.58,0,1.7-1.05,3.11-3.34,3.11-2.49,0-3.25-1.59-3.32-3.22h1.93Z" style="fill: #231f20;"/>
  </g>
  <g>
    <g>
      <path d="M134.96,252.59h1.8v-5.68h-1.8v-.79h4.53v.79h-1.8v5.68h1.8v.79h-4.53v-.79Z" style="fill: #231f20;"/>
      <path d="M141.57,248.01h.75l.08.91h.04c.56-.59,1.18-1.04,2.02-1.04,1.27,0,1.86.75,1.86,2.17v3.34h-.92v-3.22c0-1.02-.35-1.49-1.23-1.49-.64,0-1.07.32-1.69.96v3.75h-.92v-5.37Z" style="fill: #231f20;"/>
      <path d="M149.46,251.29v-2.54h-1.53v-.69l1.56-.06.12-1.73h.76v1.73h2.63v.74h-2.63v2.55c0,.96.32,1.46,1.36,1.46.5,0,.9-.1,1.28-.24l.2.67c-.49.18-1.01.32-1.68.32-1.57,0-2.08-.9-2.08-2.22Z" style="fill: #231f20;"/>
      <path d="M154.57,250.68c0-1.75,1.31-2.81,2.74-2.81,1.55,0,2.45,1.01,2.45,2.52,0,.21-.02.41-.04.55h-4.55v-.71h4l-.23.25c0-1.27-.63-1.9-1.61-1.9s-1.86.75-1.86,2.09.91,2.1,2.1,2.1c.64,0,1.15-.2,1.64-.51l.33.6c-.53.35-1.22.64-2.08.64-1.61,0-2.9-1.04-2.9-2.83Z" style="fill: #231f20;"/>
      <path d="M162.06,248.01h.76l.09,1.27h.02c.56-.87,1.4-1.4,2.4-1.4.4,0,.73.06,1.06.22l-.21.78c-.38-.12-.57-.18-.99-.18-.81,0-1.57.41-2.21,1.54v3.14h-.92v-5.37Z" style="fill: #231f20;"/>
      <path d="M167.98,251.99c0-1.21,1.13-1.79,3.9-2.01-.03-.73-.39-1.35-1.43-1.35-.7,0-1.38.33-1.88.64l-.36-.62c.55-.35,1.46-.77,2.4-.77,1.47,0,2.19.87,2.19,2.21v3.3h-.76l-.08-.73h-.03c-.59.46-1.36.86-2.11.86-1.01,0-1.84-.56-1.84-1.53ZM171.89,251.98v-1.39c-2.3.18-3,.63-3,1.34,0,.61.55.85,1.17.85s1.2-.29,1.82-.8Z" style="fill: #231f20;"/>
      <path d="M174.62,250.7c0-1.8,1.37-2.83,3-2.83.87,0,1.51.35,1.96.79l-.45.59c-.44-.38-.91-.61-1.47-.61-1.24,0-2.09.83-2.09,2.07s.84,2.05,2.07,2.05c.66,0,1.22-.3,1.66-.67l.41.6c-.6.53-1.34.84-2.13.84-1.68,0-2.94-1.03-2.94-2.81Z" style="fill: #231f20;"/>
      <path d="M182.65,251.29v-2.54h-1.53v-.69l1.56-.06.12-1.73h.76v1.73h2.63v.74h-2.63v2.55c0,.96.32,1.46,1.36,1.46.5,0,.9-.1,1.28-.24l.2.67c-.49.18-1.01.32-1.68.32-1.57,0-2.08-.9-2.08-2.22Z" style="fill: #231f20;"/>
      <path d="M190.5,248.75h-2.49v-.74h3.41v5.37h-.92v-4.63ZM190.13,246.17c0-.42.31-.71.73-.71s.73.29.73.71-.31.71-.73.71-.73-.28-.73-.71Z" style="fill: #231f20;"/>
      <path d="M194.32,250.7c0-1.8,1.24-2.83,2.65-2.83s2.65,1.03,2.65,2.83-1.24,2.81-2.65,2.81-2.65-1.03-2.65-2.81ZM198.69,250.7c0-1.24-.69-2.07-1.71-2.07s-1.71.83-1.71,2.07.69,2.05,1.71,2.05,1.71-.82,1.71-2.05Z" style="fill: #231f20;"/>
      <path d="M201.32,248.01h.75l.08.91h.04c.56-.59,1.18-1.04,2.02-1.04,1.27,0,1.86.75,1.86,2.17v3.34h-.92v-3.22c0-1.02-.35-1.49-1.23-1.49-.64,0-1.07.32-1.69.96v3.75h-.92v-5.37Z" style="fill: #231f20;"/>
      <path d="M147.75,265.45c0-2.09,3.13-2.5,3.13-4.06,0-.42-.18-.8-.66-.8s-.81.45-.81,1.05c0,1.36,1.45,3.16,2.8,4.19.52.43,1.02.72,1.46.86l-.25.76c-.54-.17-1.13-.5-1.76-1.01-1.55-1.24-3.04-3.31-3.04-4.79,0-.97.64-1.72,1.59-1.72s1.41.59,1.41,1.44c0,1.8-2.99,2.39-2.99,4.01,0,.81.62,1.34,1.39,1.34.56,0,1.09-.35,1.53-.85.55-.64.94-1.47,1.18-2.47h.85c-.29,1.08-.74,2.08-1.39,2.91-.59.67-1.3,1.14-2.28,1.14-1.28,0-2.17-.84-2.17-2.01Z" style="fill: #231f20;"/>
      <path d="M162.04,260.07h.92v6.47h3.58v.79h-4.5v-7.25Z" style="fill: #231f20;"/>
      <path d="M167.86,264.65c0-1.8,1.24-2.83,2.65-2.83s2.65,1.03,2.65,2.83-1.24,2.81-2.65,2.81-2.65-1.03-2.65-2.81ZM172.23,264.65c0-1.24-.69-2.07-1.71-2.07s-1.71.83-1.71,2.07.69,2.05,1.71,2.05,1.71-.82,1.71-2.05Z" style="fill: #231f20;"/>
      <path d="M174.63,268.31c0-.43.31-.86.88-1.19v-.04c-.29-.15-.55-.43-.55-.88,0-.34.23-.73.64-1.01v-.04c-.36-.28-.66-.75-.66-1.39,0-1.17.97-1.92,2.11-1.92.31,0,.56.04.8.13h2.22v.74h-1.39c.24.25.45.65.45,1.08,0,1.15-.92,1.85-2.08,1.85-.28,0-.61-.07-.91-.2-.27.17-.42.36-.42.62,0,.42.41.62,1.12.62h1.2c1.38,0,2.05.35,2.05,1.26,0,1.01-1.16,1.88-2.99,1.88-1.57,0-2.48-.54-2.48-1.49ZM179.2,268.07c0-.51-.41-.65-1.23-.65h-1.05c-.31,0-.59-.02-.82-.09-.51.28-.68.59-.68.9,0,.56.61.92,1.76.92,1.25,0,2.02-.52,2.02-1.07ZM178.29,263.75c0-.75-.55-1.26-1.24-1.26s-1.24.51-1.24,1.26.56,1.27,1.24,1.27,1.24-.5,1.24-1.27Z" style="fill: #231f20;"/>
      <path d="M183.96,262.7h-2.49v-.74h3.41v5.37h-.92v-4.63ZM183.6,260.12c0-.42.31-.71.73-.71s.73.29.73.71-.31.71-.73.71-.73-.28-.73-.71Z" style="fill: #231f20;"/>
      <path d="M188,264.65c0-1.8,1.37-2.83,3-2.83.87,0,1.51.35,1.96.79l-.45.59c-.44-.38-.91-.61-1.47-.61-1.24,0-2.09.83-2.09,2.07s.84,2.05,2.07,2.05c.66,0,1.22-.3,1.66-.67l.41.6c-.6.53-1.34.84-2.13.84-1.68,0-2.94-1.03-2.94-2.81Z" style="fill: #231f20;"/>
    </g>
    <g>
      <path d="M144.73,237.71c0,1.79-.42,2.99-2.58,2.99-.43,0-.8-.05-1.05-.09v-1.61c.18.02.42.05.69.05.86,0,1-.4,1-1.24v-8.08h1.94v7.99Z" style="fill: #231f20;"/>
      <path d="M151.74,238.75c0,.41.03,1.43.06,1.8h-1.74c-.03-.16-.08-.53-.08-.77-.32.53-.86.92-1.87.92-1.59,0-2.21-1.27-2.21-2.46,0-1.7,1.16-2.72,3.27-2.72.28,0,.49,0,.68.02v-.9c0-.48-.06-1.05-.89-1.05s-.89.52-.93,1.07h-1.81c.03-1.22.6-2.52,2.82-2.52,1.78,0,2.7.81,2.7,2.39v4.23ZM149.9,236.92c-.19-.03-.37-.03-.62-.03-1.09,0-1.48.51-1.48,1.18,0,.5.24,1.08.95,1.08.98,0,1.15-.73,1.15-1.96v-.26Z" style="fill: #231f20;"/>
      <path d="M154.49,232.27c.51,2.35,1.07,4.91,1.25,6.29h.02c.15-1.27.85-3.91,1.35-6.29h1.91l-2.32,8.29h-2.06l-2.19-8.29h2.04Z" style="fill: #231f20;"/>
      <path d="M165.16,238.75c0,.41.03,1.43.06,1.8h-1.74c-.03-.16-.08-.53-.08-.77-.32.53-.86.92-1.87.92-1.59,0-2.21-1.27-2.21-2.46,0-1.7,1.16-2.72,3.27-2.72.28,0,.49,0,.68.02v-.9c0-.48-.06-1.05-.89-1.05s-.89.52-.93,1.07h-1.81c.03-1.22.6-2.52,2.82-2.52,1.78,0,2.7.81,2.7,2.39v4.23ZM163.32,236.92c-.19-.03-.37-.03-.62-.03-1.09,0-1.48.51-1.48,1.18,0,.5.24,1.08.95,1.08.98,0,1.15-.73,1.15-1.96v-.26Z" style="fill: #231f20;"/>
      <path d="M168.23,237.52c.09.9.46,1.69,1.45,1.69s1.31-.6,1.31-1.4c0-.89-.44-1.41-1.81-2.06-1.85-.88-2.58-1.66-2.58-3.27,0-1.74,1.12-2.92,3.07-2.92,2.44,0,3.04,1.65,3.07,3.06h-1.9c-.06-.62-.22-1.53-1.2-1.53-.77,0-1.11.5-1.11,1.23,0,.78.35,1.14,1.62,1.73,1.94.9,2.82,1.77,2.82,3.58,0,1.7-1.05,3.11-3.34,3.11-2.49,0-3.25-1.59-3.32-3.22h1.93Z" style="fill: #231f20;"/>
      <path d="M179.84,237.75c-.03.67-.18,2.95-2.92,2.95-2.38,0-2.96-1.9-2.96-4.36,0-2.2.72-4.23,3.06-4.23,2.72,0,2.8,2.35,2.82,2.85h-1.93c-.02-.32-.05-1.27-.9-1.27s-1.12.94-1.12,2.66.26,2.76,1.09,2.76c.9,0,.96-.9,1.01-1.37h1.85Z" style="fill: #231f20;"/>
      <path d="M181,235.08c0-1.36,0-2.22-.02-2.81h1.83c.02.14.05.49.05,1.36.31-.94,1.04-1.5,2.17-1.5v2.14c-1.35-.03-2.11.37-2.11,1.93v4.35h-1.91v-5.48Z" style="fill: #231f20;"/>
      <path d="M186.04,232.27h1.91v8.29h-1.91v-8.29ZM186.06,229.18h1.91v1.89h-1.91v-1.89Z" style="fill: #231f20;"/>
      <path d="M191.57,239.92v3.63h-1.91v-8.88c0-1.12,0-1.87-.02-2.4h1.84c.03.18.06.6.06.91.26-.53.75-1.05,1.86-1.05,1.54,0,2.42,1.32,2.42,4.15,0,3.24-1.08,4.44-2.67,4.44-.86,0-1.34-.35-1.58-.79ZM193.89,236.36c0-1.98-.41-2.61-1.22-2.61-.96,0-1.16.91-1.16,2.53,0,1.9.1,2.8,1.14,2.8.84,0,1.24-.89,1.24-2.72Z" style="fill: #231f20;"/>
      <path d="M196.31,232.27h1.09v-2.07h1.91v2.07h1.28v1.57h-1.28v4.53c0,.48.09.75.68.75.19,0,.31,0,.47-.03v1.41c-.35.15-.87.17-1.17.17-1.33,0-1.9-.49-1.9-1.98v-4.85h-1.09v-1.57Z" style="fill: #231f20;"/>
    </g>
  </g>
  <path d="M74.22,375.56c1.51-.12,2.82-.74,3.28-2.27.36-1.18.3-2.62-.58-3.56.2-.55.19-1.17.02-1.73-.03-.09-.07-.3-.17-.31-.67-.08-1.5.47-2.05.8-1.24-.34-2.58-.34-3.82,0-.4-.24-.83-.52-1.27-.67-.14-.05-.76-.21-.84-.11-.04.05-.13.41-.15.5-.11.53-.1,1.03.07,1.54-.89.92-.93,2.38-.58,3.54.46,1.55,1.76,2.12,3.27,2.27v.04c-.17.13-.31.39-.38.61-.04.13-.05.27-.1.39-.14.06-.3.12-.45.15-.36.07-.73.06-1.07-.1-.8-.39-.89-1.59-2.03-1.46-.32.04-.17.24-.01.38.19.16.32.2.5.41.58.71.48,1.46,1.55,1.71.5.11.99.06,1.49-.02,0,.41,0,.83,0,1.24,0,.05.02.1.02.15,0,.33-.27.47-.57.39-.48-.12-1.19-.5-1.61-.76-4.49-2.8-4.86-9.24-.69-12.52,3.57-2.8,8.79-1.92,11.21,1.89,2.51,3.94.93,9.21-3.31,11.12-.17.08-.66.29-.82.3-.2,0-.4-.13-.42-.33-.13-1.13.35-2.63-.47-3.54l-.02-.05Z" style="fill: #231f20;"/>
  <path d="M63.76,385.73v-1.29h-.85s-.07-.12-.08-.16c-.02-.22-.02-.72,0-.93,0-.05.02-.1.07-.13h2.23s.01,3.39.01,3.39c-.83.52-1.93.61-2.87.41-1.67-.36-2.1-1.85-2.07-3.39.03-1.42.46-2.9,2.01-3.25.65-.15,1.62-.12,2.26.07.14.04.45.11.43.29-.03.22-.15.73-.22.94-.02.06-.05.13-.12.12-.08,0-.27-.09-.38-.11-.66-.14-1.64-.17-2.12.39-.55.65-.55,2.32-.16,3.05s1.14.73,1.87.6Z" style="fill: #231f20;"/>
  <path d="M72.73,386.89s-.07.11-.12.1c-.37-.03-.8.04-1.17,0-.06,0-.1-.01-.11-.08v-6.34s.06-.03.09-.03c.24-.03.94-.03,1.19,0,.04,0,.12.02.12.08v2.32h1.83v-2.32c0-.05.08-.07.12-.08.25-.03.95-.03,1.19,0,.03,0,.06,0,.08.03v6.34c0,.08-.06.08-.12.08-.28.02-.87.03-1.14,0-.04,0-.12-.02-.12-.08v-2.71h-1.83v2.68Z" style="fill: #231f20;"/>
  <path d="M82.59,382.74c.23-.1.45-.21.71-.25.86-.15,1.61.1,1.92.96.29.8.26,2.54-.32,3.21s-1.95.54-2.62.01c-.03,0-.01.29-.11.32-.27-.02-.6.04-.86,0-.09-.01-.12-.07-.12-.16v-6.18c.02-.06.06-.1.12-.1.37.04.83-.05,1.19,0,.03,0,.1.03.1.05v2.15ZM83.08,383.6c-.08.01-.49.14-.51.2v1.96c.34.21,1.06.37,1.29-.06.2-.36.19-1.4.02-1.77-.16-.33-.46-.37-.8-.33Z" style="fill: #231f20;"/>
  <path d="M77.93,382.61s.02.07.03.11c.07.89-.1,1.95,0,2.82.04.38.31.45.65.42.11-.01.56-.13.59-.23l.02-3.12s.08-.03.12-.04c.28-.02.84-.03,1.12,0,.04,0,.08,0,.11.04l.03,1.11c-.07.99.09,2.09,0,3.06,0,.06-.01.13-.07.17h-.85c-.09-.02-.07-.22-.11-.29-.59.4-1.39.53-2.08.36-.62-.16-.9-.61-.95-1.23v-3.17c.02-.05.09-.05.14-.06.29-.03.84-.02,1.12,0,.04,0,.08,0,.11.03Z" style="fill: #231f20;"/>
  <path d="M69.76,383.75v1.84s.07.18.11.22c.09.11.28.15.42.16.17,0,.46-.11.49.1.02.18.02.59,0,.78-.02.17-.12.15-.26.19-1.14.27-2.06-.13-2.13-1.38-.04-.62.03-1.28,0-1.91h-.64s-.06-.05-.06-.07c-.02-.04-.02-.82,0-.86.04-.08.59-.16.7-.19l.02-1.29h1.33l.03.03v1.19l.03.03h.91s.05.07.05.1c.02.17.02.78,0,.95,0,.04-.05.12-.08.12h-.92Z" style="fill: #231f20;"/>
  <path d="M65.89,382.59h1.3s.04.08.04.08v4.16c0,.07-.02.14-.1.16h-1.16c-.07,0-.12-.05-.14-.12v-4.23s.05-.04.05-.04Z" style="fill: #231f20;"/>
  <path d="M66.49,380.67c1.04-.07,1.09,1.55.06,1.57-.97.01-1.07-1.5-.06-1.57Z" style="fill: #231f20;"/>
  <path d="M83.08,383.6c.34-.04.64,0,.8.33.18.37.18,1.41-.02,1.77-.23.43-.96.27-1.29.06v-1.96c.02-.07.43-.19.51-.2Z" style="fill: #231f20;"/>
</svg>